<svg width="2293" height="1719" viewBox="0 0 2293 1719" fill="none" xmlns="http://www.w3.org/2000/svg">
<rect width="2293" height="1719" fill="#F7FAFC"/>
<g filter="url(#filter0_f)">
<ellipse cx="1146.94" cy="1403.59" rx="847.54" ry="9.36508" fill="black"/>
</g>
<path d="M386.556 334C386.556 319.088 398.644 307 413.556 307H1885.94C1900.85 307 1912.94 319.088 1912.94 334V1339.65C1912.94 1341.31 1911.59 1342.65 1909.94 1342.65H389.556C387.899 1342.65 386.556 1341.31 386.556 1339.65V334Z" fill="#1A202C" stroke="#4A5568" stroke-width="2"/>
<path d="M394.921 337.365C394.921 325.215 404.771 315.365 416.921 315.365H1882.57C1894.72 315.365 1904.57 325.215 1904.57 337.365V1304.32H394.921V337.365Z" fill="black"/>
<path d="M1110.67 1317.19V1311.46H1110.74L1112.81 1316.1H1113.93L1116 1311.46H1116.07V1317.19H1117.61V1308.53H1115.88L1113.41 1314.12H1113.35L1110.89 1308.53H1109.14V1317.19H1110.67ZM1123.09 1316.37H1123.16V1317.19H1124.74V1312.64C1124.74 1311.07 1123.55 1310.35 1122.01 1310.35C1120.06 1310.35 1119.34 1311.39 1119.29 1312.51H1120.85C1120.9 1311.97 1121.29 1311.61 1121.97 1311.61C1122.68 1311.61 1123.09 1311.99 1123.09 1312.66V1313.27H1121.44C1119.88 1313.27 1119.04 1314.04 1119.04 1315.25C1119.04 1316.52 1119.94 1317.29 1121.26 1317.29C1122.25 1317.29 1122.82 1316.87 1123.09 1316.37ZM1121.8 1316.07C1121.24 1316.07 1120.7 1315.77 1120.7 1315.14C1120.7 1314.63 1121.07 1314.27 1121.8 1314.27H1123.09V1314.98C1123.09 1315.64 1122.51 1316.07 1121.8 1316.07ZM1126.06 1314.07C1126.06 1316.03 1127.19 1317.31 1129.05 1317.31C1130.65 1317.31 1131.72 1316.51 1131.86 1315.01H1130.32C1130.25 1315.52 1129.88 1315.97 1129.14 1315.97C1128.28 1315.97 1127.74 1315.25 1127.74 1314.06V1313.53C1127.74 1312.38 1128.26 1311.67 1129.13 1311.67C1129.76 1311.67 1130.2 1312.15 1130.29 1312.71H1131.83C1131.79 1311.41 1130.76 1310.33 1129.06 1310.33C1127.18 1310.33 1126.06 1311.64 1126.06 1313.51V1314.07ZM1136.85 1317.28C1138.41 1317.28 1139.42 1316.12 1139.42 1314.11V1313.52C1139.42 1311.46 1138.38 1310.37 1136.85 1310.37C1135.96 1310.37 1135.22 1310.8 1134.92 1311.43H1134.85V1308.07H1133.17V1317.19H1134.82V1316.15H1134.89C1135.22 1316.84 1135.89 1317.28 1136.85 1317.28ZM1136.32 1315.95C1135.41 1315.95 1134.83 1315.29 1134.83 1314.05V1313.59C1134.83 1312.35 1135.42 1311.71 1136.32 1311.71C1137.14 1311.71 1137.7 1312.35 1137.7 1313.59V1314.05C1137.7 1315.29 1137.14 1315.95 1136.32 1315.95ZM1143.63 1310.33C1141.65 1310.33 1140.55 1311.7 1140.55 1313.56V1314.05C1140.55 1316.01 1141.65 1317.31 1143.63 1317.31C1145.62 1317.31 1146.71 1316.01 1146.71 1314.05V1313.55C1146.71 1311.69 1145.61 1310.33 1143.63 1310.33ZM1143.63 1311.63C1144.6 1311.63 1145.02 1312.46 1145.02 1313.55V1314.07C1145.02 1315.14 1144.6 1316.01 1143.63 1316.01C1142.66 1316.01 1142.24 1315.13 1142.24 1314.07V1313.55C1142.24 1312.46 1142.67 1311.63 1143.63 1311.63ZM1150.92 1310.33C1148.93 1310.33 1147.83 1311.7 1147.83 1313.56V1314.05C1147.83 1316.01 1148.93 1317.31 1150.92 1317.31C1152.91 1317.31 1154 1316.01 1154 1314.05V1313.55C1154 1311.69 1152.9 1310.33 1150.92 1310.33ZM1150.92 1311.63C1151.88 1311.63 1152.31 1312.46 1152.31 1313.55V1314.07C1152.31 1315.14 1151.89 1316.01 1150.92 1316.01C1149.94 1316.01 1149.52 1315.13 1149.52 1314.07V1313.55C1149.52 1312.46 1149.95 1311.63 1150.92 1311.63ZM1157.08 1314.88L1157.55 1314.32L1159.48 1317.19H1161.45L1158.83 1313.36L1161.29 1310.46H1159.35L1157.15 1313.22H1157.08V1308.07H1155.4V1317.19H1157.08V1314.88ZM1164.89 1308.53V1317.19H1166.6V1314.28H1168.34C1170.2 1314.28 1171.28 1313.06 1171.28 1311.41C1171.28 1309.79 1170.22 1308.53 1168.36 1308.53H1164.89ZM1166.6 1309.89H1168.03C1168.97 1309.89 1169.54 1310.44 1169.54 1311.41C1169.54 1312.59 1168.82 1312.94 1167.63 1312.94H1166.6V1309.89ZM1172.48 1317.19H1174.19V1313.35C1174.19 1312.45 1174.57 1311.79 1175.67 1311.79C1175.93 1311.79 1176.2 1311.81 1176.33 1311.85V1310.4C1176.2 1310.37 1176.02 1310.35 1175.8 1310.35C1174.88 1310.35 1174.37 1310.95 1174.22 1311.38H1174.15V1310.46H1172.48V1317.19ZM1180.16 1310.33C1178.17 1310.33 1177.07 1311.7 1177.07 1313.56V1314.05C1177.07 1316.01 1178.17 1317.31 1180.16 1317.31C1182.14 1317.31 1183.24 1316.01 1183.24 1314.05V1313.55C1183.24 1311.69 1182.14 1310.33 1180.16 1310.33ZM1180.16 1311.63C1181.12 1311.63 1181.55 1312.46 1181.55 1313.55V1314.07C1181.55 1315.14 1181.13 1316.01 1180.16 1316.01C1179.18 1316.01 1178.76 1315.13 1178.76 1314.07V1313.55C1178.76 1312.46 1179.19 1311.63 1180.16 1311.63Z" fill="#A0AEC0"/>
<path d="M202 1338.16C202 1337.05 202.895 1336.16 204 1336.16H2088C2089.1 1336.16 2090 1337.05 2090 1338.16V1369.87H202V1338.16Z" fill="#A3ACB1"/>
<path d="M202 1338.16C202 1337.05 202.895 1336.16 204 1336.16H2088C2089.1 1336.16 2090 1337.05 2090 1338.16V1369.87H202V1338.16Z" fill="url(#paint0_linear)"/>
<path d="M202 1369.87H2090L2017.7 1384.45C1991.67 1389.7 1965.18 1392.35 1938.62 1392.35H347.052C317.867 1392.35 288.77 1389.16 260.28 1382.82L202 1369.87Z" fill="#647279"/>
<path d="M202 1369.87H2090L2017.7 1384.45C1991.67 1389.7 1965.18 1392.35 1938.62 1392.35H347.052C317.867 1392.35 288.77 1389.16 260.28 1382.82L202 1369.87Z" fill="url(#paint1_linear)"/>
<path fill-rule="evenodd" clip-rule="evenodd" d="M990.601 1336.16C991.565 1350.8 1003.75 1362.38 1018.63 1362.38H1275.24C1290.13 1362.38 1302.31 1350.8 1303.27 1336.16H990.601Z" fill="#96A1A8"/>
<path fill-rule="evenodd" clip-rule="evenodd" d="M990.601 1336.16C991.565 1350.8 1003.75 1362.38 1018.63 1362.38H1275.24C1290.13 1362.38 1302.31 1350.8 1303.27 1336.16H990.601Z" fill="url(#paint2_linear)"/>
<g clip-path="url(#clip0)">
<rect width="1442" height="899" transform="translate(425 364)" fill="#F6F6FA"/>
<rect x="272" y="335.287" width="1642.91" height="842.668" transform="rotate(-8.12813 272 335.287)" fill="url(#paint3_linear)"/>
<rect x="300.195" y="1006.46" width="1707" height="743.335" transform="rotate(9.30541 300.195 1006.46)" fill="#519CBB" fill-opacity="0.88"/>
<rect x="839" y="864" width="308" height="70" rx="35" fill="#65A7C3"/>
<path d="M932.847 890.98C932.287 890.98 931.839 890.812 931.503 890.476C931.167 890.121 930.999 889.664 930.999 889.104C930.999 888.563 931.167 888.124 931.503 887.788C931.839 887.452 932.287 887.284 932.847 887.284C933.407 887.284 933.846 887.452 934.163 887.788C934.499 888.105 934.667 888.544 934.667 889.104C934.667 890.355 934.06 890.98 932.847 890.98ZM937.159 890.98C936.599 890.98 936.151 890.812 935.815 890.476C935.479 890.14 935.311 889.683 935.311 889.104C935.311 887.891 935.927 887.284 937.159 887.284C937.719 887.284 938.158 887.452 938.475 887.788C938.811 888.105 938.979 888.544 938.979 889.104C938.979 890.355 938.372 890.98 937.159 890.98ZM930.159 904C928.572 904 927.331 903.468 926.435 902.404C925.632 901.471 925.231 900.267 925.231 898.792V895.936L928.731 894.088V898.568C928.731 899.315 928.88 899.847 929.179 900.164C929.496 900.463 930.01 900.612 930.719 900.612H939.847C940.556 900.612 941.06 900.453 941.359 900.136C941.658 899.819 941.807 899.296 941.807 898.568V893.416L945.335 891.568V898.792C945.335 900.491 944.803 901.816 943.739 902.768C942.806 903.589 941.611 904 940.155 904H930.159ZM955.539 904C953.841 904 952.525 903.459 951.591 902.376C950.789 901.443 950.387 900.239 950.387 898.764V887.788L953.915 885.94V898.596C953.915 899.324 954.065 899.847 954.363 900.164C954.662 900.463 955.166 900.612 955.875 900.612H958.395V904H955.539ZM985.547 900.612H988.067V904H985.211C983.848 904 982.719 903.636 981.823 902.908C980.927 903.636 979.798 904 978.435 904H966.339C964.976 904 963.847 903.636 962.951 902.908C962.055 903.636 960.926 904 959.563 904H956.707V900.612H959.227C959.936 900.612 960.44 900.463 960.739 900.164C961.038 899.847 961.187 899.324 961.187 898.596V894.9L964.715 893.052V898.596C964.715 899.791 965.191 900.453 966.143 900.584C967.039 897.859 968.346 895.647 970.063 893.948C971.967 892.044 974.151 891.092 976.615 891.092C978.818 891.092 980.582 891.857 981.907 893.388C983.027 894.676 983.587 896.272 983.587 898.176V898.764C983.587 899.996 984.24 900.612 985.547 900.612ZM978.295 900.612C978.967 900.612 979.424 900.472 979.667 900.192C979.928 899.893 980.059 899.352 980.059 898.568V898.176C980.059 897.056 979.742 896.141 979.107 895.432C978.472 894.723 977.651 894.368 976.643 894.368C975.187 894.368 973.824 894.928 972.555 896.048C971.304 897.168 970.315 898.689 969.587 900.612H978.295ZM1015.21 900.612H1017.73V904H1014.88C1013.52 904 1012.39 903.636 1011.49 902.908C1010.59 903.636 1009.47 904 1008.1 904H996.007C994.644 904 993.515 903.636 992.619 902.908C991.723 903.636 990.593 904 989.231 904H986.375V900.612H988.895C989.604 900.612 990.108 900.463 990.407 900.164C990.705 899.847 990.855 899.324 990.855 898.596V894.9L994.383 893.052V898.596C994.383 899.791 994.859 900.453 995.811 900.584C996.707 897.859 998.013 895.647 999.731 893.948C1001.63 892.044 1003.82 891.092 1006.28 891.092C1008.49 891.092 1010.25 891.857 1011.57 893.388C1012.69 894.676 1013.25 896.272 1013.25 898.176V898.764C1013.25 899.996 1013.91 900.612 1015.21 900.612ZM1007.96 900.612C1008.63 900.612 1009.09 900.472 1009.33 900.192C1009.6 899.893 1009.73 899.352 1009.73 898.568V898.176C1009.73 897.056 1009.41 896.141 1008.77 895.432C1008.14 894.723 1007.32 894.368 1006.31 894.368C1004.85 894.368 1003.49 894.928 1002.22 896.048C1000.97 897.168 999.983 898.689 999.255 900.612H1007.96ZM1024.72 888.74C1024.16 888.74 1023.71 888.572 1023.38 888.236C1023.04 887.9 1022.87 887.443 1022.87 886.864C1022.87 886.323 1023.04 885.884 1023.38 885.548C1023.71 885.212 1024.16 885.044 1024.72 885.044C1025.28 885.044 1025.72 885.212 1026.04 885.548C1026.37 885.865 1026.54 886.304 1026.54 886.864C1026.54 888.115 1025.94 888.74 1024.72 888.74ZM1034.3 900.612H1036.65V904H1034.27C1032.8 904 1031.61 903.841 1030.71 903.524C1029.84 903.188 1029.02 902.609 1028.25 901.788C1025.92 903.263 1023.23 904 1020.19 904H1016.04V900.612H1020.21C1023.5 900.612 1026.11 899.632 1028.05 897.672C1026.79 895.451 1025.25 894.34 1023.43 894.34C1021.94 894.34 1020.31 895.152 1018.53 896.776V893.668C1020.1 891.951 1021.88 891.092 1023.85 891.092C1025.31 891.092 1026.73 891.624 1028.11 892.688C1029.49 893.752 1030.71 895.264 1031.78 897.224V898.624C1031.48 899.016 1031.09 899.455 1030.6 899.94C1031.35 900.388 1032.58 900.612 1034.3 900.612ZM1037.62 889.104C1037.06 889.104 1036.62 888.936 1036.28 888.6C1035.94 888.264 1035.78 887.807 1035.78 887.228C1035.78 886.687 1035.94 886.248 1036.28 885.912C1036.62 885.576 1037.06 885.408 1037.62 885.408C1038.18 885.408 1038.62 885.576 1038.94 885.912C1039.28 886.229 1039.44 886.668 1039.44 887.228C1039.44 888.479 1038.84 889.104 1037.62 889.104ZM1041.91 889.104C1041.35 889.104 1040.9 888.936 1040.56 888.6C1040.23 888.245 1040.06 887.788 1040.06 887.228C1040.06 886.687 1040.23 886.248 1040.56 885.912C1040.92 885.576 1041.37 885.408 1041.91 885.408C1042.47 885.408 1042.91 885.576 1043.22 885.912C1043.56 886.229 1043.73 886.668 1043.73 887.228C1043.73 888.479 1043.12 889.104 1041.91 889.104ZM1044.93 900.612H1047.45V904H1044.6C1043.23 904 1042.1 903.636 1041.21 902.908C1040.31 903.636 1039.18 904 1037.82 904H1034.96V900.612H1037.48C1038.19 900.612 1038.7 900.463 1039 900.164C1039.3 899.847 1039.44 899.324 1039.44 898.596V893.416L1042.97 891.568V898.596C1042.97 899.324 1043.12 899.847 1043.42 900.164C1043.72 900.463 1044.22 900.612 1044.93 900.612ZM1045.77 904V900.612H1047.53C1048.39 900.612 1048.99 900.425 1049.35 900.052C1049.72 899.679 1049.91 899.044 1049.91 898.148V887.816L1053.41 885.94V898.176C1053.41 899.987 1052.86 901.433 1051.76 902.516C1050.75 903.505 1049.41 904 1047.73 904H1045.77ZM1058.45 904V887.816L1061.98 885.94V904H1058.45Z" fill="white"/>
<rect x="1161" y="864" width="308" height="70" rx="35" fill="url(#paint4_linear)"/>
<path d="M1259.22 890.98C1258.66 890.98 1258.21 890.812 1257.88 890.476C1257.54 890.121 1257.37 889.664 1257.37 889.104C1257.37 888.563 1257.54 888.124 1257.88 887.788C1258.21 887.452 1258.66 887.284 1259.22 887.284C1259.78 887.284 1260.22 887.452 1260.54 887.788C1260.87 888.105 1261.04 888.544 1261.04 889.104C1261.04 890.355 1260.44 890.98 1259.22 890.98ZM1263.53 890.98C1262.97 890.98 1262.53 890.812 1262.19 890.476C1261.85 890.14 1261.69 889.683 1261.69 889.104C1261.69 887.891 1262.3 887.284 1263.53 887.284C1264.09 887.284 1264.53 887.452 1264.85 887.788C1265.19 888.105 1265.35 888.544 1265.35 889.104C1265.35 890.355 1264.75 890.98 1263.53 890.98ZM1256.53 904C1254.95 904 1253.71 903.468 1252.81 902.404C1252.01 901.471 1251.61 900.267 1251.61 898.792V895.936L1255.11 894.088V898.568C1255.11 899.315 1255.26 899.847 1255.55 900.164C1255.87 900.463 1256.38 900.612 1257.09 900.612H1266.22C1266.93 900.612 1267.44 900.453 1267.73 900.136C1268.03 899.819 1268.18 899.296 1268.18 898.568V893.416L1271.71 891.568V898.792C1271.71 900.491 1271.18 901.816 1270.11 902.768C1269.18 903.589 1267.99 904 1266.53 904H1256.53ZM1281.91 904C1280.22 904 1278.9 903.459 1277.97 902.376C1277.16 901.443 1276.76 900.239 1276.76 898.764V887.788L1280.29 885.94V898.596C1280.29 899.324 1280.44 899.847 1280.74 900.164C1281.04 900.463 1281.54 900.612 1282.25 900.612H1284.77V904H1281.91ZM1296.83 900.612H1304.53L1304.59 904H1296.49C1295.54 904 1294.65 903.767 1293.81 903.3C1292.93 903.767 1292.03 904 1291.12 904H1283.08V900.612H1290.7C1289.86 900.033 1289.16 899.483 1288.6 898.96C1288.28 898.68 1287.79 898.157 1287.14 897.392C1286.94 897.149 1286.77 896.953 1286.64 896.804V895.208C1287.46 893.957 1288.51 892.959 1289.8 892.212C1291.11 891.465 1292.44 891.092 1293.81 891.092C1295.15 891.092 1296.47 891.475 1297.78 892.24C1299.09 892.987 1300.17 893.995 1301.03 895.264V896.804C1299.78 898.316 1298.38 899.585 1296.83 900.612ZM1293.78 899.268C1295.18 898.167 1296.21 897.056 1296.89 895.936C1295.77 894.891 1294.71 894.368 1293.72 894.368C1292.77 894.368 1291.78 894.891 1290.75 895.936C1291.48 897.224 1292.49 898.335 1293.78 899.268ZM1307.39 896.272C1307.39 894.592 1307.91 893.276 1308.95 892.324C1309.87 891.503 1311.04 891.092 1312.48 891.092C1314.33 891.092 1315.77 891.773 1316.79 893.136C1317.67 894.275 1318.11 895.74 1318.11 897.532C1318.11 899.604 1317.56 901.237 1316.46 902.432C1315.47 903.477 1314.21 904 1312.68 904C1311.18 904 1309.96 903.673 1309.01 903.02C1308.11 903.673 1307.03 904 1305.76 904H1302.91V900.612H1305.43C1306.14 900.612 1306.64 900.463 1306.94 900.164C1307.24 899.847 1307.39 899.324 1307.39 898.596V896.272ZM1310.91 899.044C1310.91 900.089 1311.46 900.612 1312.57 900.612C1313.95 900.612 1314.64 899.548 1314.64 897.42C1314.64 895.385 1313.92 894.368 1312.48 894.368C1311.44 894.368 1310.91 894.984 1310.91 896.216V899.044ZM1327.88 904C1326.18 904 1324.86 903.459 1323.93 902.376C1323.13 901.443 1322.73 900.239 1322.73 898.764V887.788L1326.25 885.94V898.596C1326.25 899.324 1326.4 899.847 1326.7 900.164C1327 900.463 1327.51 900.612 1328.21 900.612H1330.73V904H1327.88ZM1347.3 900.612H1349.65V904H1347.27C1345.8 904 1344.61 903.841 1343.72 903.524C1342.84 903.188 1342.02 902.609 1341.25 901.788C1338.92 903.263 1336.23 904 1333.19 904H1329.05V900.612H1333.22C1336.5 900.612 1339.12 899.632 1341.06 897.672C1339.79 895.451 1338.25 894.34 1336.44 894.34C1334.95 894.34 1333.31 895.152 1331.54 896.776V893.668C1333.11 891.951 1334.88 891.092 1336.86 891.092C1338.31 891.092 1339.73 891.624 1341.11 892.688C1342.5 893.752 1343.72 895.264 1344.78 897.224V898.624C1344.48 899.016 1344.09 899.455 1343.61 899.94C1344.35 900.388 1345.59 900.612 1347.3 900.612ZM1339.55 906.548C1340.11 906.548 1340.55 906.707 1340.86 907.024C1341.2 907.36 1341.37 907.808 1341.37 908.368C1341.37 909.619 1340.76 910.244 1339.55 910.244C1338.99 910.244 1338.54 910.076 1338.2 909.74C1337.87 909.404 1337.7 908.947 1337.7 908.368C1337.7 907.827 1337.87 907.388 1338.2 907.052C1338.54 906.716 1338.99 906.548 1339.55 906.548ZM1347.97 904V900.612H1349.73C1350.59 900.612 1351.2 900.425 1351.55 900.052C1351.93 899.679 1352.11 899.044 1352.11 898.148V887.816L1355.61 885.94V898.176C1355.61 899.987 1355.06 901.433 1353.96 902.516C1352.95 903.505 1351.61 904 1349.93 904H1347.97ZM1360.65 904V887.816L1364.18 885.94V904H1360.65Z" fill="white"/>
<path d="M764.413 718.52C764.413 721.613 763.56 724.12 761.853 726.04C760.28 727.827 758.2 728.72 755.613 728.72C753.933 728.72 752.293 728.293 750.693 727.44V723.04C752.08 723.813 753.44 724.2 754.773 724.2C756.24 724.2 757.373 723.72 758.173 722.76C759 721.827 759.413 720.52 759.413 718.84V705.92L764.413 703.24V718.52ZM790.627 716.16V721H785.707C785.521 723.4 784.454 725.32 782.507 726.76C780.907 727.933 779.041 728.52 776.907 728.52C775.227 728.52 773.587 728.067 771.987 727.16V722.8C773.427 723.627 774.867 724.04 776.307 724.04C777.427 724.04 778.414 723.733 779.267 723.12C780.147 722.507 780.627 721.773 780.707 720.92C780.494 720.893 780.161 720.867 779.707 720.84C779.254 720.787 778.907 720.747 778.667 720.72C775.921 720.427 773.801 719.347 772.307 717.48C771.054 715.907 770.427 714 770.427 711.76C770.427 708.827 771.227 706.507 772.827 704.8C774.241 703.307 776.107 702.56 778.427 702.56C780.801 702.56 782.654 703.32 783.987 704.84C785.134 706.147 785.707 707.853 785.707 709.96V716.16H790.627ZM780.707 709.88C780.707 708.12 779.947 707.24 778.427 707.24C776.401 707.24 775.387 708.693 775.387 711.6C775.387 714.187 776.561 715.627 778.907 715.92C779.281 716 779.881 716.067 780.707 716.12V709.88ZM802.474 716.16H806.074V721H801.994C800.047 721 798.434 720.48 797.154 719.44C795.874 720.48 794.26 721 792.314 721H788.234V716.16H791.834C792.847 716.16 793.567 715.947 793.994 715.52C794.42 715.067 794.634 714.32 794.634 713.28V705.88L799.674 703.24V713.28C799.674 714.32 799.887 715.067 800.314 715.52C800.74 715.947 801.46 716.16 802.474 716.16ZM797.394 724.64C798.194 724.64 798.82 724.867 799.274 725.32C799.754 725.8 799.994 726.44 799.994 727.24C799.994 729.027 799.127 729.92 797.394 729.92C796.594 729.92 795.954 729.68 795.474 729.2C794.994 728.72 794.754 728.067 794.754 727.24C794.754 726.467 794.994 725.84 795.474 725.36C795.954 724.88 796.594 724.64 797.394 724.64ZM829.103 716.16H832.663V721H828.583C826.663 721 825.09 720.507 823.863 719.52C822.423 721.04 820.53 721.8 818.183 721.8C815.783 721.8 813.89 721.04 812.503 719.52C811.223 720.507 809.637 721 807.743 721H803.663V716.16H807.263C808.277 716.16 808.997 715.947 809.423 715.52C809.85 715.067 810.063 714.32 810.063 713.28V712.12C810.063 709 810.877 706.573 812.503 704.84C813.917 703.32 815.81 702.56 818.183 702.56C820.877 702.56 822.957 703.547 824.423 705.52C825.65 707.2 826.263 709.4 826.263 712.12V713.28C826.263 714.32 826.477 715.067 826.903 715.52C827.357 715.947 828.09 716.16 829.103 716.16ZM818.183 716.96C820.21 716.96 821.223 715.307 821.223 712C821.223 708.827 820.21 707.24 818.183 707.24C816.13 707.24 815.103 708.827 815.103 712C815.103 715.307 816.13 716.96 818.183 716.96ZM844.505 716.16H848.105V721H844.025C842.078 721 840.465 720.48 839.185 719.44C837.905 720.48 836.292 721 834.345 721H830.265V716.16H833.865C834.878 716.16 835.598 715.947 836.025 715.52C836.452 715.067 836.665 714.32 836.665 713.28V705.88L841.705 703.24V713.28C841.705 714.32 841.918 715.067 842.345 715.52C842.772 715.947 843.492 716.16 844.505 716.16ZM834.145 724.64C834.945 724.64 835.572 724.867 836.025 725.32C836.505 725.8 836.745 726.44 836.745 727.24C836.745 729.027 835.878 729.92 834.145 729.92C833.345 729.92 832.705 729.68 832.225 729.2C831.745 728.72 831.505 728.067 831.505 727.24C831.505 725.507 832.385 724.64 834.145 724.64ZM840.305 724.64C841.105 724.64 841.732 724.867 842.185 725.32C842.665 725.8 842.905 726.44 842.905 727.24C842.905 729.027 842.038 729.92 840.305 729.92C839.505 729.92 838.865 729.68 838.385 729.2C837.905 728.72 837.665 728.067 837.665 727.24C837.665 725.507 838.545 724.64 840.305 724.64ZM848.575 699.2C847.775 699.2 847.135 698.96 846.655 698.48C846.175 698 845.935 697.347 845.935 696.52C845.935 694.787 846.815 693.92 848.575 693.92C849.375 693.92 850.001 694.16 850.455 694.64C850.935 695.093 851.175 695.72 851.175 696.52C851.175 698.307 850.308 699.2 848.575 699.2ZM854.735 699.2C853.935 699.2 853.295 698.96 852.815 698.48C852.335 698 852.095 697.347 852.095 696.52C852.095 694.787 852.975 693.92 854.735 693.92C855.535 693.92 856.161 694.16 856.615 694.64C857.095 695.093 857.335 695.72 857.335 696.52C857.335 698.307 856.468 699.2 854.735 699.2ZM845.695 721V716.16H849.295C850.308 716.16 851.028 715.947 851.455 715.52C851.881 715.067 852.095 714.32 852.095 713.28V705.88L857.135 703.24V713.52C857.135 715.947 856.388 717.84 854.895 719.2C853.588 720.4 851.881 721 849.775 721H845.695ZM870.732 721L873.252 716.16H879.572C880.932 716.16 881.612 715.373 881.612 713.8C881.612 710.84 880.199 708.573 877.372 707L879.852 702.76C884.385 705.427 886.652 709.133 886.652 713.88C886.652 718.627 884.599 721 880.492 721H870.732ZM911.995 716.16V721H907.075C906.888 723.4 905.821 725.32 903.875 726.76C902.275 727.933 900.408 728.52 898.275 728.52C896.595 728.52 894.955 728.067 893.355 727.16V722.8C894.795 723.627 896.235 724.04 897.675 724.04C898.795 724.04 899.781 723.733 900.635 723.12C901.515 722.507 901.995 721.773 902.075 720.92C901.861 720.893 901.528 720.867 901.075 720.84C900.621 720.787 900.275 720.747 900.035 720.72C897.288 720.427 895.168 719.347 893.675 717.48C892.421 715.907 891.795 714 891.795 711.76C891.795 708.827 892.595 706.507 894.195 704.8C895.608 703.307 897.475 702.56 899.795 702.56C902.168 702.56 904.021 703.32 905.355 704.84C906.501 706.147 907.075 707.853 907.075 709.96V716.16H911.995ZM902.075 709.88C902.075 708.12 901.315 707.24 899.795 707.24C897.768 707.24 896.755 708.693 896.755 711.6C896.755 714.187 897.928 715.627 900.275 715.92C900.648 716 901.248 716.067 902.075 716.12V709.88ZM935.041 716.16H938.601V721H934.521C932.601 721 931.027 720.507 929.801 719.52C928.361 721.04 926.467 721.8 924.121 721.8C921.721 721.8 919.827 721.04 918.441 719.52C917.161 720.507 915.574 721 913.681 721H909.601V716.16H913.201C914.214 716.16 914.934 715.947 915.361 715.52C915.787 715.067 916.001 714.32 916.001 713.28V712.12C916.001 709 916.814 706.573 918.441 704.84C919.854 703.32 921.747 702.56 924.121 702.56C926.814 702.56 928.894 703.547 930.361 705.52C931.587 707.2 932.201 709.4 932.201 712.12V713.28C932.201 714.32 932.414 715.067 932.841 715.52C933.294 715.947 934.027 716.16 935.041 716.16ZM924.121 716.96C926.147 716.96 927.161 715.307 927.161 712C927.161 708.827 926.147 707.24 924.121 707.24C922.067 707.24 921.041 708.827 921.041 712C921.041 715.307 922.067 716.96 924.121 716.96ZM936.202 721V716.16H940.442C941.456 716.16 942.176 715.947 942.602 715.52C943.056 715.067 943.282 714.32 943.282 713.28V708L948.322 705.36V713.28C948.322 714.32 948.536 715.067 948.962 715.52C949.389 715.947 950.109 716.16 951.122 716.16H953.842C954.856 716.16 955.576 715.947 956.002 715.52C956.429 715.067 956.642 714.32 956.642 713.28V706.96L961.682 704.28V713.28C961.682 714.32 961.896 715.067 962.322 715.52C962.776 715.947 963.509 716.16 964.522 716.16H967.242C968.256 716.16 968.976 715.947 969.402 715.52C969.829 715.067 970.042 714.32 970.042 713.28V705.88L975.082 703.24V713.52C975.082 715.893 974.362 717.76 972.922 719.12C971.669 720.32 970.016 720.947 967.962 721H964.002C962.029 721 960.416 720.413 959.162 719.24C958.016 720.387 956.496 720.973 954.602 721H950.642C948.669 721 947.056 720.413 945.802 719.24C944.549 720.413 942.936 721 940.962 721H936.202ZM1001.29 716.16V721H996.371C996.185 723.4 995.118 725.32 993.171 726.76C991.571 727.933 989.705 728.52 987.571 728.52C985.891 728.52 984.251 728.067 982.651 727.16V722.8C984.091 723.627 985.531 724.04 986.971 724.04C988.091 724.04 989.078 723.733 989.931 723.12C990.811 722.507 991.291 721.773 991.371 720.92C991.158 720.893 990.825 720.867 990.371 720.84C989.918 720.787 989.571 720.747 989.331 720.72C986.585 720.427 984.465 719.347 982.971 717.48C981.718 715.907 981.091 714 981.091 711.76C981.091 708.827 981.891 706.507 983.491 704.8C984.905 703.307 986.771 702.56 989.091 702.56C991.465 702.56 993.318 703.32 994.651 704.84C995.798 706.147 996.371 707.853 996.371 709.96V716.16H1001.29ZM991.371 709.88C991.371 708.12 990.611 707.24 989.091 707.24C987.065 707.24 986.051 708.693 986.051 711.6C986.051 714.187 987.225 715.627 989.571 715.92C989.945 716 990.545 716.067 991.371 716.12V709.88ZM998.898 721V716.16H1002.5C1003.51 716.16 1004.23 715.947 1004.66 715.52C1005.08 715.067 1005.3 714.32 1005.3 713.28V705.88L1010.34 703.24V713.52C1010.34 715.947 1009.59 717.84 1008.1 719.2C1006.79 720.4 1005.08 721 1002.98 721H998.898ZM1001.06 729.92C1000.26 729.92 999.618 729.68 999.138 729.2C998.658 728.72 998.418 728.067 998.418 727.24C998.418 725.507 999.298 724.64 1001.06 724.64C1001.86 724.64 1002.48 724.867 1002.94 725.32C1003.42 725.8 1003.66 726.44 1003.66 727.24C1003.66 729.027 1002.79 729.92 1001.06 729.92ZM1007.22 729.92C1006.42 729.92 1005.78 729.68 1005.3 729.2C1004.82 728.72 1004.58 728.067 1004.58 727.24C1004.58 725.507 1005.46 724.64 1007.22 724.64C1008.02 724.64 1008.64 724.867 1009.1 725.32C1009.58 725.8 1009.82 726.44 1009.82 727.24C1009.82 729.027 1008.95 729.92 1007.22 729.92ZM1016.01 692.96L1017.29 690.64H1018.49C1018.19 690.107 1018.05 689.56 1018.05 689C1018.05 688.147 1018.35 687.413 1018.97 686.8C1019.61 686.187 1020.37 685.88 1021.25 685.88C1022.05 685.88 1022.79 686.16 1023.49 686.72V689.04C1022.85 688.48 1022.21 688.2 1021.57 688.2C1020.69 688.2 1020.25 688.6 1020.25 689.4C1020.25 689.8 1020.42 690.213 1020.77 690.64H1024.73L1023.45 692.96H1016.01ZM1017.53 721V697.88L1022.57 695.2V721H1017.53ZM1048.4 719.84C1047.58 720 1046.72 720.08 1045.84 720.08C1043.39 720.08 1041.43 719.16 1039.96 717.32C1038.76 715.773 1038.16 713.907 1038.16 711.72C1038.16 708.787 1038.96 706.48 1040.56 704.8C1041.98 703.307 1043.84 702.56 1046.16 702.56C1048.54 702.56 1050.39 703.32 1051.72 704.84C1052.87 706.147 1053.44 707.853 1053.44 709.96V718.52C1053.44 721.667 1052.62 724.147 1050.96 725.96C1049.42 727.667 1047.31 728.52 1044.64 728.52C1042.96 728.52 1041.32 728.067 1039.72 727.16V722.8C1041.16 723.627 1042.6 724.04 1044.04 724.04C1046.63 724.04 1048.08 722.64 1048.4 719.84ZM1048.44 709.88C1048.44 708.12 1047.68 707.24 1046.16 707.24C1045.2 707.24 1044.44 707.627 1043.88 708.4C1043.35 709.173 1043.08 710.227 1043.08 711.56C1043.08 714.387 1044.1 715.8 1046.12 715.8C1047.19 715.8 1047.96 715.533 1048.44 715V709.88ZM1057.06 721L1059.58 716.16H1065.9C1067.26 716.16 1067.94 715.373 1067.94 713.8C1067.94 710.84 1066.53 708.573 1063.7 707L1066.18 702.76C1070.71 705.427 1072.98 709.133 1072.98 713.88C1072.98 718.627 1070.93 721 1066.82 721H1057.06ZM1099.81 702.4C1099.01 702.4 1098.37 702.16 1097.89 701.68C1097.41 701.173 1097.17 700.52 1097.17 699.72C1097.17 698.947 1097.41 698.32 1097.89 697.84C1098.37 697.36 1099.01 697.12 1099.81 697.12C1100.61 697.12 1101.24 697.36 1101.69 697.84C1102.17 698.293 1102.41 698.92 1102.41 699.72C1102.41 701.507 1101.55 702.4 1099.81 702.4ZM1105.97 702.4C1105.17 702.4 1104.53 702.16 1104.05 701.68C1103.57 701.2 1103.33 700.547 1103.33 699.72C1103.33 697.987 1104.21 697.12 1105.97 697.12C1106.77 697.12 1107.4 697.36 1107.85 697.84C1108.33 698.293 1108.57 698.92 1108.57 699.72C1108.57 701.507 1107.71 702.4 1105.97 702.4ZM1120.45 716.16H1123.25V721H1119.97C1118 721 1116.39 720.48 1115.13 719.44C1113.85 720.48 1112.23 721 1110.25 721H1095.97C1093.71 721 1091.93 720.24 1090.65 718.72C1089.51 717.387 1088.93 715.667 1088.93 713.56V709.48L1093.93 706.84V713.24C1093.93 714.307 1094.15 715.067 1094.57 715.52C1095.03 715.947 1095.76 716.16 1096.77 716.16H1109.81C1110.83 716.16 1111.55 715.933 1111.97 715.48C1112.4 715.027 1112.61 714.28 1112.61 713.24V705.88L1117.65 703.24V713.28C1117.65 714.32 1117.87 715.067 1118.29 715.52C1118.72 715.947 1119.44 716.16 1120.45 716.16ZM1135.09 716.16H1138.69V721H1134.61C1132.66 721 1131.05 720.48 1129.77 719.44C1128.49 720.48 1126.88 721 1124.93 721H1120.85V716.16H1124.45C1125.46 716.16 1126.18 715.947 1126.61 715.52C1127.04 715.067 1127.25 714.32 1127.25 713.28V705.88L1132.29 703.24V713.28C1132.29 714.32 1132.5 715.067 1132.93 715.52C1133.36 715.947 1134.08 716.16 1135.09 716.16ZM1124.73 724.64C1125.53 724.64 1126.16 724.867 1126.61 725.32C1127.09 725.8 1127.33 726.44 1127.33 727.24C1127.33 729.027 1126.46 729.92 1124.73 729.92C1123.93 729.92 1123.29 729.68 1122.81 729.2C1122.33 728.72 1122.09 728.067 1122.09 727.24C1122.09 725.507 1122.97 724.64 1124.73 724.64ZM1130.89 724.64C1131.69 724.64 1132.32 724.867 1132.77 725.32C1133.25 725.8 1133.49 726.44 1133.49 727.24C1133.49 729.027 1132.62 729.92 1130.89 729.92C1130.09 729.92 1129.45 729.68 1128.97 729.2C1128.49 728.72 1128.25 728.067 1128.25 727.24C1128.25 725.507 1129.13 724.64 1130.89 724.64ZM1136.28 721V716.16H1140.52C1141.53 716.16 1142.25 715.947 1142.68 715.52C1143.13 715.067 1143.36 714.32 1143.36 713.28V708L1148.4 705.36V713.28C1148.4 714.32 1148.61 715.067 1149.04 715.52C1149.47 715.947 1150.19 716.16 1151.2 716.16H1153.92C1154.93 716.16 1155.65 715.947 1156.08 715.52C1156.51 715.067 1156.72 714.32 1156.72 713.28V706.96L1161.76 704.28V713.28C1161.76 714.32 1161.97 715.067 1162.4 715.52C1162.85 715.947 1163.59 716.16 1164.6 716.16H1167.32C1168.33 716.16 1169.05 715.947 1169.48 715.52C1169.91 715.067 1170.12 714.32 1170.12 713.28V705.88L1175.16 703.24V713.52C1175.16 715.893 1174.44 717.76 1173 719.12C1171.75 720.32 1170.09 720.947 1168.04 721H1164.08C1162.11 721 1160.49 720.413 1159.24 719.24C1158.09 720.387 1156.57 720.973 1154.68 721H1150.72C1148.75 721 1147.13 720.413 1145.88 719.24C1144.63 720.413 1143.01 721 1141.04 721H1136.28ZM1181.21 725.2L1179.93 722.84C1181.1 722.387 1181.69 721.773 1181.69 721C1180.41 721 1179.77 720.24 1179.77 718.72C1179.77 717.947 1180.02 717.307 1180.53 716.8C1181.06 716.293 1181.74 716.04 1182.57 716.04C1183.4 716.04 1184.08 716.373 1184.61 717.04C1185.14 717.68 1185.41 718.493 1185.41 719.48C1185.41 720.893 1185.01 722.133 1184.21 723.2C1183.44 724.267 1182.44 724.933 1181.21 725.2ZM1200.28 702.4C1199.48 702.4 1198.84 702.16 1198.36 701.68C1197.88 701.173 1197.64 700.52 1197.64 699.72C1197.64 698.947 1197.88 698.32 1198.36 697.84C1198.84 697.36 1199.48 697.12 1200.28 697.12C1201.08 697.12 1201.71 697.36 1202.16 697.84C1202.64 698.293 1202.88 698.92 1202.88 699.72C1202.88 701.507 1202.01 702.4 1200.28 702.4ZM1206.44 702.4C1205.64 702.4 1205 702.16 1204.52 701.68C1204.04 701.2 1203.8 700.547 1203.8 699.72C1203.8 697.987 1204.68 697.12 1206.44 697.12C1207.24 697.12 1207.87 697.36 1208.32 697.84C1208.8 698.293 1209.04 698.92 1209.04 699.72C1209.04 701.507 1208.17 702.4 1206.44 702.4ZM1220.92 716.16H1223.72V721H1220.44C1218.47 721 1216.85 720.48 1215.6 719.44C1214.32 720.48 1212.69 721 1210.72 721H1196.44C1194.17 721 1192.4 720.24 1191.12 718.72C1189.97 717.387 1189.4 715.667 1189.4 713.56V709.48L1194.4 706.84V713.24C1194.4 714.307 1194.61 715.067 1195.04 715.52C1195.49 715.947 1196.23 716.16 1197.24 716.16H1210.28C1211.29 716.16 1212.01 715.933 1212.44 715.48C1212.87 715.027 1213.08 714.28 1213.08 713.24V705.88L1218.12 703.24V713.28C1218.12 714.32 1218.33 715.067 1218.76 715.52C1219.19 715.947 1219.91 716.16 1220.92 716.16ZM1221.32 721V716.16H1224.92C1225.93 716.16 1226.65 715.947 1227.08 715.52C1227.51 715.067 1227.72 714.32 1227.72 713.28V705.88L1232.76 703.24V713.52C1232.76 715.947 1232.01 717.84 1230.52 719.2C1229.21 720.4 1227.51 721 1225.4 721H1221.32ZM1223.48 729.92C1222.68 729.92 1222.04 729.68 1221.56 729.2C1221.08 728.72 1220.84 728.067 1220.84 727.24C1220.84 725.507 1221.72 724.64 1223.48 724.64C1224.28 724.64 1224.91 724.867 1225.36 725.32C1225.84 725.8 1226.08 726.44 1226.08 727.24C1226.08 729.027 1225.21 729.92 1223.48 729.92ZM1229.64 729.92C1228.84 729.92 1228.2 729.68 1227.72 729.2C1227.24 728.72 1227 728.067 1227 727.24C1227 725.507 1227.88 724.64 1229.64 724.64C1230.44 724.64 1231.07 724.867 1231.52 725.32C1232 725.8 1232.24 726.44 1232.24 727.24C1232.24 729.027 1231.37 729.92 1229.64 729.92ZM1247.31 721C1244.88 721 1243 720.227 1241.67 718.68C1240.52 717.347 1239.95 715.627 1239.95 713.52V697.84L1244.99 695.2V713.28C1244.99 714.32 1245.2 715.067 1245.63 715.52C1246.05 715.947 1246.77 716.16 1247.79 716.16H1251.39V721H1247.31ZM1263.22 716.16H1266.82V721H1262.74C1260.79 721 1259.18 720.48 1257.9 719.44C1256.62 720.48 1255 721 1253.06 721H1248.98V716.16H1252.58C1253.59 716.16 1254.31 715.947 1254.74 715.52C1255.16 715.067 1255.38 714.32 1255.38 713.28V705.88L1260.42 703.24V713.28C1260.42 714.32 1260.63 715.067 1261.06 715.52C1261.48 715.947 1262.2 716.16 1263.22 716.16ZM1252.86 724.64C1253.66 724.64 1254.28 724.867 1254.74 725.32C1255.22 725.8 1255.46 726.44 1255.46 727.24C1255.46 729.027 1254.59 729.92 1252.86 729.92C1252.06 729.92 1251.42 729.68 1250.94 729.2C1250.46 728.72 1250.22 728.067 1250.22 727.24C1250.22 725.507 1251.1 724.64 1252.86 724.64ZM1259.02 724.64C1259.82 724.64 1260.44 724.867 1260.9 725.32C1261.38 725.8 1261.62 726.44 1261.62 727.24C1261.62 729.027 1260.75 729.92 1259.02 729.92C1258.22 729.92 1257.58 729.68 1257.1 729.2C1256.62 728.72 1256.38 728.067 1256.38 727.24C1256.38 725.507 1257.26 724.64 1259.02 724.64ZM1264.41 721V716.16H1266.93C1268.15 716.16 1269.02 715.893 1269.53 715.36C1270.06 714.827 1270.33 713.92 1270.33 712.64V697.88L1275.33 695.2V712.68C1275.33 715.267 1274.54 717.333 1272.97 718.88C1271.53 720.293 1269.61 721 1267.21 721H1264.41ZM1281.01 692.96L1282.29 690.64H1283.49C1283.19 690.107 1283.05 689.56 1283.05 689C1283.05 688.147 1283.35 687.413 1283.97 686.8C1284.61 686.187 1285.37 685.88 1286.25 685.88C1287.05 685.88 1287.79 686.16 1288.49 686.72V689.04C1287.85 688.48 1287.21 688.2 1286.57 688.2C1285.69 688.2 1285.25 688.6 1285.25 689.4C1285.25 689.8 1285.42 690.213 1285.77 690.64H1289.73L1288.45 692.96H1281.01ZM1282.53 721V697.88L1287.57 695.2V721H1282.53ZM1328.2 716.16H1330.8V721H1328.16C1326.03 721 1324.3 720.747 1322.96 720.24C1321.66 719.733 1320.44 718.853 1319.32 717.6C1318.58 717.867 1317.23 718.227 1315.28 718.68C1312.78 719.267 1311.06 719.973 1310.12 720.8C1308.98 721.867 1308.4 723.373 1308.4 725.32C1308.4 729.213 1310.44 731.16 1314.52 731.16C1317.14 731.16 1319.59 730.44 1321.88 729V733.76C1319.56 735.253 1316.94 736 1314 736C1310.8 736 1308.24 734.987 1306.32 732.96C1304.48 731.013 1303.56 728.453 1303.56 725.28C1303.56 721.947 1304.54 719.333 1306.48 717.44C1307.34 716.613 1308.26 715.987 1309.24 715.56C1310.26 715.133 1312.04 714.613 1314.6 714C1316.92 713.44 1318.56 712.787 1319.52 712.04C1317.68 708.813 1315.47 707.2 1312.88 707.2C1310.7 707.2 1308.36 708.36 1305.88 710.68V706.24C1308.1 703.787 1310.62 702.56 1313.44 702.56C1315.55 702.56 1317.59 703.32 1319.56 704.84C1321.54 706.36 1323.28 708.52 1324.8 711.32V713.32C1324.3 714.12 1323.76 714.76 1323.2 715.24C1324.24 715.853 1325.91 716.16 1328.2 716.16ZM1312.16 725.12C1312.16 723.627 1312.91 722.88 1314.4 722.88C1315.9 722.88 1316.64 723.627 1316.64 725.12C1316.64 726.64 1315.9 727.4 1314.4 727.4C1312.91 727.4 1312.16 726.64 1312.16 725.12ZM1336.23 699.2C1335.43 699.2 1334.79 698.96 1334.31 698.48C1333.83 698 1333.59 697.347 1333.59 696.52C1333.59 695.747 1333.83 695.12 1334.31 694.64C1334.79 694.16 1335.43 693.92 1336.23 693.92C1337.03 693.92 1337.66 694.16 1338.11 694.64C1338.59 695.093 1338.83 695.72 1338.83 696.52C1338.83 698.307 1337.96 699.2 1336.23 699.2ZM1342.63 716.16H1346.23V721H1342.15C1340.2 721 1338.59 720.48 1337.31 719.44C1336.03 720.48 1334.42 721 1332.47 721H1328.39V716.16H1331.99C1333 716.16 1333.72 715.947 1334.15 715.52C1334.58 715.067 1334.79 714.32 1334.79 713.28V705.88L1339.83 703.24V713.28C1339.83 714.32 1340.04 715.067 1340.47 715.52C1340.9 715.947 1341.62 716.16 1342.63 716.16ZM1358.06 716.16H1361.66V721H1357.58C1355.63 721 1354.02 720.48 1352.74 719.44C1351.46 720.48 1349.85 721 1347.9 721H1343.82V716.16H1347.42C1348.43 716.16 1349.15 715.947 1349.58 715.52C1350.01 715.067 1350.22 714.32 1350.22 713.28V705.88L1355.26 703.24V713.28C1355.26 714.32 1355.47 715.067 1355.9 715.52C1356.33 715.947 1357.05 716.16 1358.06 716.16ZM1347.7 724.64C1348.5 724.64 1349.13 724.867 1349.58 725.32C1350.06 725.8 1350.3 726.44 1350.3 727.24C1350.3 729.027 1349.43 729.92 1347.7 729.92C1346.9 729.92 1346.26 729.68 1345.78 729.2C1345.3 728.72 1345.06 728.067 1345.06 727.24C1345.06 725.507 1345.94 724.64 1347.7 724.64ZM1353.86 724.64C1354.66 724.64 1355.29 724.867 1355.74 725.32C1356.22 725.8 1356.46 726.44 1356.46 727.24C1356.46 729.027 1355.59 729.92 1353.86 729.92C1353.06 729.92 1352.42 729.68 1351.94 729.2C1351.46 728.72 1351.22 728.067 1351.22 727.24C1351.22 725.507 1352.1 724.64 1353.86 724.64ZM1380.85 716.16H1384.01V721H1380.33C1378.38 721 1376.78 720.48 1375.53 719.44C1374.25 720.48 1372.64 721 1370.69 721H1359.25V716.16H1370.17C1372.04 716.16 1372.97 715.24 1372.97 713.4V713.16C1372.97 711.693 1372.42 710.52 1371.33 709.64C1370.24 708.733 1368.8 708.28 1367.01 708.28C1365.65 708.28 1364.22 708.547 1362.73 709.08V704.24L1370.85 695.2H1375.93L1368.65 703.36C1370.76 703.573 1372.54 704.2 1374.01 705.24C1376.68 707.053 1378.01 709.68 1378.01 713.12V713.28C1378.01 714.32 1378.22 715.067 1378.65 715.52C1379.1 715.947 1379.84 716.16 1380.85 716.16ZM1381.59 721V716.16H1385.83C1386.85 716.16 1387.57 715.947 1387.99 715.52C1388.45 715.067 1388.67 714.32 1388.67 713.28V708L1393.71 705.36V713.28C1393.71 714.32 1393.93 715.067 1394.35 715.52C1394.78 715.947 1395.5 716.16 1396.51 716.16H1399.23C1400.25 716.16 1400.97 715.947 1401.39 715.52C1401.82 715.067 1402.03 714.32 1402.03 713.28V706.96L1407.07 704.28V713.28C1407.07 714.32 1407.29 715.067 1407.71 715.52C1408.17 715.947 1408.9 716.16 1409.91 716.16H1412.63C1413.65 716.16 1414.37 715.947 1414.79 715.52C1415.22 715.067 1415.43 714.32 1415.43 713.28V705.88L1420.47 703.24V712.64C1420.47 713.92 1420.73 714.827 1421.23 715.36C1421.77 715.893 1422.65 716.16 1423.87 716.16H1427.55V721H1423.59C1421.35 721 1419.55 720.36 1418.19 719.08C1416.99 720.333 1415.38 720.973 1413.35 721H1409.39C1407.42 721 1405.81 720.413 1404.55 719.24C1403.41 720.387 1401.89 720.973 1399.99 721H1396.03C1394.06 721 1392.45 720.413 1391.19 719.24C1389.94 720.413 1388.33 721 1386.35 721H1381.59ZM1425.15 721V716.16H1428.75C1429.76 716.16 1430.48 715.947 1430.91 715.52C1431.33 715.067 1431.55 714.32 1431.55 713.28V705.88L1436.59 703.24V713.52C1436.59 715.947 1435.84 717.84 1434.35 719.2C1433.04 720.4 1431.33 721 1429.23 721H1425.15ZM1427.31 729.92C1426.51 729.92 1425.87 729.68 1425.39 729.2C1424.91 728.72 1424.67 728.067 1424.67 727.24C1424.67 725.507 1425.55 724.64 1427.31 724.64C1428.11 724.64 1428.73 724.867 1429.19 725.32C1429.67 725.8 1429.91 726.44 1429.91 727.24C1429.91 729.027 1429.04 729.92 1427.31 729.92ZM1433.47 729.92C1432.67 729.92 1432.03 729.68 1431.55 729.2C1431.07 728.72 1430.83 728.067 1430.83 727.24C1430.83 725.507 1431.71 724.64 1433.47 724.64C1434.27 724.64 1434.89 724.867 1435.35 725.32C1435.83 725.8 1436.07 726.44 1436.07 727.24C1436.07 729.027 1435.2 729.92 1433.47 729.92ZM1460.75 721C1458.32 721 1456.44 720.227 1455.11 718.68C1453.96 717.347 1453.39 715.627 1453.39 713.52V697.84L1458.43 695.2V713.28C1458.43 714.32 1458.64 715.067 1459.07 715.52C1459.49 715.947 1460.21 716.16 1461.23 716.16H1464.83V721H1460.75ZM1476.65 716.16H1480.25V721H1476.17C1474.23 721 1472.61 720.48 1471.33 719.44C1470.05 720.48 1468.44 721 1466.49 721H1462.41V716.16H1466.01C1467.03 716.16 1467.75 715.947 1468.17 715.52C1468.6 715.067 1468.81 714.32 1468.81 713.28V705.88L1473.85 703.24V713.28C1473.85 714.32 1474.07 715.067 1474.49 715.52C1474.92 715.947 1475.64 716.16 1476.65 716.16ZM1471.57 724.64C1472.37 724.64 1473 724.867 1473.45 725.32C1473.93 725.8 1474.17 726.44 1474.17 727.24C1474.17 729.027 1473.31 729.92 1471.57 729.92C1470.77 729.92 1470.13 729.68 1469.65 729.2C1469.17 728.72 1468.93 728.067 1468.93 727.24C1468.93 726.467 1469.17 725.84 1469.65 725.36C1470.13 724.88 1470.77 724.64 1471.57 724.64ZM1477.84 721V716.16H1481.44C1482.46 716.16 1483.18 715.947 1483.6 715.52C1484.03 715.067 1484.24 714.32 1484.24 713.28V705.88L1489.28 703.24V713.52C1489.28 715.947 1488.54 717.84 1487.04 719.2C1485.74 720.4 1484.03 721 1481.92 721H1477.84ZM1480 729.92C1479.2 729.92 1478.56 729.68 1478.08 729.2C1477.6 728.72 1477.36 728.067 1477.36 727.24C1477.36 725.507 1478.24 724.64 1480 724.64C1480.8 724.64 1481.43 724.867 1481.88 725.32C1482.36 725.8 1482.6 726.44 1482.6 727.24C1482.6 729.027 1481.74 729.92 1480 729.92ZM1486.16 729.92C1485.36 729.92 1484.72 729.68 1484.24 729.2C1483.76 728.72 1483.52 728.067 1483.52 727.24C1483.52 725.507 1484.4 724.64 1486.16 724.64C1486.96 724.64 1487.59 724.867 1488.04 725.32C1488.52 725.8 1488.76 726.44 1488.76 727.24C1488.76 729.027 1487.9 729.92 1486.16 729.92ZM1496.47 721V697.88L1501.51 695.2V721H1496.47ZM1505.5 721L1508.02 716.16H1514.34C1515.7 716.16 1516.38 715.373 1516.38 713.8C1516.38 710.84 1514.96 708.573 1512.14 707L1514.62 702.76C1519.15 705.427 1521.42 709.133 1521.42 713.88C1521.42 718.627 1519.36 721 1515.26 721H1505.5ZM1526.24 692.96L1527.52 690.64H1528.72C1528.43 690.107 1528.28 689.56 1528.28 689C1528.28 688.147 1528.59 687.413 1529.2 686.8C1529.84 686.187 1530.6 685.88 1531.48 685.88C1532.28 685.88 1533.03 686.16 1533.72 686.72V689.04C1533.08 688.48 1532.44 688.2 1531.8 688.2C1530.92 688.2 1530.48 688.6 1530.48 689.4C1530.48 689.8 1530.65 690.213 1531 690.64H1534.96L1533.68 692.96H1526.24ZM1527.76 721V697.88L1532.8 695.2V721H1527.76ZM775.351 764.52C775.351 767.613 774.497 770.12 772.791 772.04C771.217 773.827 769.137 774.72 766.551 774.72C764.871 774.72 763.231 774.293 761.631 773.44V769.04C763.017 769.813 764.377 770.2 765.711 770.2C767.177 770.2 768.311 769.72 769.111 768.76C769.937 767.827 770.351 766.52 770.351 764.84V751.92L775.351 749.24V764.52ZM801.565 762.16V767H796.645C796.458 769.4 795.392 771.32 793.445 772.76C791.845 773.933 789.978 774.52 787.845 774.52C786.165 774.52 784.525 774.067 782.925 773.16V768.8C784.365 769.627 785.805 770.04 787.245 770.04C788.365 770.04 789.352 769.733 790.205 769.12C791.085 768.507 791.565 767.773 791.645 766.92C791.432 766.893 791.098 766.867 790.645 766.84C790.192 766.787 789.845 766.747 789.605 766.72C786.858 766.427 784.738 765.347 783.245 763.48C781.992 761.907 781.365 760 781.365 757.76C781.365 754.827 782.165 752.507 783.765 750.8C785.178 749.307 787.045 748.56 789.365 748.56C791.738 748.56 793.592 749.32 794.925 750.84C796.072 752.147 796.645 753.853 796.645 755.96V762.16H801.565ZM791.645 755.88C791.645 754.12 790.885 753.24 789.365 753.24C787.338 753.24 786.325 754.693 786.325 757.6C786.325 760.187 787.498 761.627 789.845 761.92C790.218 762 790.818 762.067 791.645 762.12V755.88ZM802.971 745.72C802.171 745.72 801.531 745.48 801.051 745C800.571 744.52 800.331 743.867 800.331 743.04C800.331 742.267 800.571 741.64 801.051 741.16C801.531 740.68 802.171 740.44 802.971 740.44C803.771 740.44 804.398 740.68 804.851 741.16C805.331 741.613 805.571 742.24 805.571 743.04C805.571 744.827 804.704 745.72 802.971 745.72ZM809.091 745.72C808.291 745.72 807.651 745.48 807.171 745C806.691 744.493 806.451 743.84 806.451 743.04C806.451 742.267 806.691 741.64 807.171 741.16C807.678 740.68 808.318 740.44 809.091 740.44C809.891 740.44 810.518 740.68 810.971 741.16C811.451 741.613 811.691 742.24 811.691 743.04C811.691 744.827 810.824 745.72 809.091 745.72ZM813.411 762.16H817.011V767H812.931C810.984 767 809.371 766.48 808.091 765.44C806.811 766.48 805.198 767 803.251 767H799.171V762.16H802.771C803.784 762.16 804.504 761.947 804.931 761.52C805.358 761.067 805.571 760.32 805.571 759.28V751.88L810.611 749.24V759.28C810.611 760.32 810.824 761.067 811.251 761.52C811.678 761.947 812.398 762.16 813.411 762.16ZM828.841 762.16H832.441V767H828.361C826.414 767 824.801 766.48 823.521 765.44C822.241 766.48 820.627 767 818.681 767H814.601V762.16H818.201C819.214 762.16 819.934 761.947 820.361 761.52C820.787 761.067 821.001 760.32 821.001 759.28V751.88L826.041 749.24V759.28C826.041 760.32 826.254 761.067 826.681 761.52C827.107 761.947 827.827 762.16 828.841 762.16ZM818.481 770.64C819.281 770.64 819.907 770.867 820.361 771.32C820.841 771.8 821.081 772.44 821.081 773.24C821.081 775.027 820.214 775.92 818.481 775.92C817.681 775.92 817.041 775.68 816.561 775.2C816.081 774.72 815.841 774.067 815.841 773.24C815.841 771.507 816.721 770.64 818.481 770.64ZM824.641 770.64C825.441 770.64 826.067 770.867 826.521 771.32C827.001 771.8 827.241 772.44 827.241 773.24C827.241 775.027 826.374 775.92 824.641 775.92C823.841 775.92 823.201 775.68 822.721 775.2C822.241 774.72 822.001 774.067 822.001 773.24C822.001 771.507 822.881 770.64 824.641 770.64ZM833.83 745.72C833.03 745.72 832.39 745.48 831.91 745C831.43 744.52 831.19 743.867 831.19 743.04C831.19 742.267 831.43 741.64 831.91 741.16C832.39 740.68 833.03 740.44 833.83 740.44C834.63 740.44 835.257 740.68 835.71 741.16C836.19 741.613 836.43 742.24 836.43 743.04C836.43 744.827 835.564 745.72 833.83 745.72ZM839.95 745.72C839.15 745.72 838.51 745.48 838.03 745C837.55 744.493 837.31 743.84 837.31 743.04C837.31 742.267 837.55 741.64 838.03 741.16C838.537 740.68 839.177 740.44 839.95 740.44C840.75 740.44 841.377 740.68 841.83 741.16C842.31 741.613 842.55 742.24 842.55 743.04C842.55 744.827 841.684 745.72 839.95 745.72ZM844.27 762.16H847.87V767H843.79C841.844 767 840.23 766.48 838.95 765.44C837.67 766.48 836.057 767 834.11 767H830.03V762.16H833.63C834.644 762.16 835.364 761.947 835.79 761.52C836.217 761.067 836.43 760.32 836.43 759.28V751.88L841.47 749.24V759.28C841.47 760.32 841.684 761.067 842.11 761.52C842.537 761.947 843.257 762.16 844.27 762.16ZM867.06 762.16H870.22V767H866.54C864.593 767 862.993 766.48 861.74 765.44C860.46 766.48 858.847 767 856.9 767H845.46V762.16H856.38C858.247 762.16 859.18 761.24 859.18 759.4V759.16C859.18 757.693 858.633 756.52 857.54 755.64C856.447 754.733 855.007 754.28 853.22 754.28C851.86 754.28 850.433 754.547 848.94 755.08V750.24L857.06 741.2H862.14L854.86 749.36C856.967 749.573 858.753 750.2 860.22 751.24C862.887 753.053 864.22 755.68 864.22 759.12V759.28C864.22 760.32 864.433 761.067 864.86 761.52C865.313 761.947 866.047 762.16 867.06 762.16ZM882.044 762.16H885.644V767H881.564C879.617 767 878.004 766.48 876.724 765.44C875.444 766.48 873.831 767 871.884 767H867.804V762.16H871.404C872.417 762.16 873.137 761.947 873.564 761.52C873.991 761.067 874.204 760.32 874.204 759.28V751.88L879.244 749.24V759.28C879.244 760.32 879.457 761.067 879.884 761.52C880.311 761.947 881.031 762.16 882.044 762.16ZM871.684 770.64C872.484 770.64 873.111 770.867 873.564 771.32C874.044 771.8 874.284 772.44 874.284 773.24C874.284 775.027 873.417 775.92 871.684 775.92C870.884 775.92 870.244 775.68 869.764 775.2C869.284 774.72 869.044 774.067 869.044 773.24C869.044 771.507 869.924 770.64 871.684 770.64ZM877.844 770.64C878.644 770.64 879.271 770.867 879.724 771.32C880.204 771.8 880.444 772.44 880.444 773.24C880.444 775.027 879.577 775.92 877.844 775.92C877.044 775.92 876.404 775.68 875.924 775.2C875.444 774.72 875.204 774.067 875.204 773.24C875.204 771.507 876.084 770.64 877.844 770.64ZM883.234 767V762.16H887.474C888.487 762.16 889.207 761.947 889.634 761.52C890.087 761.067 890.314 760.32 890.314 759.28V754L895.354 751.36V759.28C895.354 760.32 895.567 761.067 895.994 761.52C896.42 761.947 897.14 762.16 898.154 762.16H900.874C901.887 762.16 902.607 761.947 903.034 761.52C903.46 761.067 903.674 760.32 903.674 759.28V752.96L908.714 750.28V759.28C908.714 760.32 908.927 761.067 909.354 761.52C909.807 761.947 910.54 762.16 911.554 762.16H914.274C915.287 762.16 916.007 761.947 916.434 761.52C916.86 761.067 917.074 760.32 917.074 759.28V751.88L922.114 749.24V758.64C922.114 759.92 922.367 760.827 922.874 761.36C923.407 761.893 924.287 762.16 925.514 762.16H929.194V767H925.234C922.994 767 921.194 766.36 919.834 765.08C918.634 766.333 917.02 766.973 914.994 767H911.034C909.06 767 907.447 766.413 906.194 765.24C905.047 766.387 903.527 766.973 901.634 767H897.674C895.7 767 894.087 766.413 892.834 765.24C891.58 766.413 889.967 767 887.994 767H883.234ZM935.828 745.2C935.028 745.2 934.388 744.96 933.908 744.48C933.428 744 933.188 743.347 933.188 742.52C933.188 741.747 933.428 741.12 933.908 740.64C934.388 740.16 935.028 739.92 935.828 739.92C936.628 739.92 937.255 740.16 937.708 740.64C938.188 741.093 938.428 741.72 938.428 742.52C938.428 744.307 937.562 745.2 935.828 745.2ZM926.788 767V762.16H930.388C931.402 762.16 932.122 761.947 932.548 761.52C932.975 761.067 933.188 760.32 933.188 759.28V751.88L938.228 749.24V759.52C938.228 761.947 937.482 763.84 935.988 765.2C934.682 766.4 932.975 767 930.868 767H926.788ZM964.416 762.16V767H959.496C959.31 769.4 958.243 771.32 956.296 772.76C954.696 773.933 952.83 774.52 950.696 774.52C949.016 774.52 947.376 774.067 945.776 773.16V768.8C947.216 769.627 948.656 770.04 950.096 770.04C951.216 770.04 952.203 769.733 953.056 769.12C953.936 768.507 954.416 767.773 954.496 766.92C954.283 766.893 953.95 766.867 953.496 766.84C953.043 766.787 952.696 766.747 952.456 766.72C949.71 766.427 947.59 765.347 946.096 763.48C944.843 761.907 944.216 760 944.216 757.76C944.216 754.827 945.016 752.507 946.616 750.8C948.03 749.307 949.896 748.56 952.216 748.56C954.59 748.56 956.443 749.32 957.776 750.84C958.923 752.147 959.496 753.853 959.496 755.96V762.16H964.416ZM954.496 755.88C954.496 754.12 953.736 753.24 952.216 753.24C950.19 753.24 949.176 754.693 949.176 757.6C949.176 760.187 950.35 761.627 952.696 761.92C953.07 762 953.67 762.067 954.496 762.12V755.88ZM971.423 749.36C973.423 749.52 975.183 750.12 976.703 751.16C979.423 753 980.783 755.653 980.783 759.12V759.64C980.783 762.04 980.036 763.92 978.543 765.28C977.236 766.427 975.543 767 973.463 767H962.023V762.16H972.943C974.809 762.16 975.743 761.24 975.743 759.4V759.16C975.743 757.72 975.183 756.547 974.063 755.64C972.969 754.733 971.529 754.28 969.743 754.28C968.409 754.28 966.996 754.547 965.503 755.08V750.24L973.623 741.2H978.703L971.423 749.36ZM985.624 771.2L984.344 768.84C985.517 768.387 986.104 767.773 986.104 767C984.824 767 984.184 766.24 984.184 764.72C984.184 763.947 984.437 763.307 984.944 762.8C985.477 762.293 986.157 762.04 986.984 762.04C987.81 762.04 988.49 762.373 989.024 763.04C989.557 763.68 989.824 764.493 989.824 765.48C989.824 766.893 989.424 768.133 988.624 769.2C987.85 770.267 986.85 770.933 985.624 771.2ZM1014.3 748.4C1013.5 748.4 1012.86 748.16 1012.38 747.68C1011.9 747.173 1011.66 746.52 1011.66 745.72C1011.66 744.947 1011.9 744.32 1012.38 743.84C1012.86 743.36 1013.5 743.12 1014.3 743.12C1015.1 743.12 1015.73 743.36 1016.18 743.84C1016.66 744.293 1016.9 744.92 1016.9 745.72C1016.9 747.507 1016.04 748.4 1014.3 748.4ZM1020.46 748.4C1019.66 748.4 1019.02 748.16 1018.54 747.68C1018.06 747.2 1017.82 746.547 1017.82 745.72C1017.82 743.987 1018.7 743.12 1020.46 743.12C1021.26 743.12 1021.89 743.36 1022.34 743.84C1022.82 744.293 1023.06 744.92 1023.06 745.72C1023.06 747.507 1022.2 748.4 1020.46 748.4ZM1034.94 762.16H1037.74V767H1034.46C1032.49 767 1030.88 766.48 1029.62 765.44C1028.34 766.48 1026.72 767 1024.74 767H1010.46C1008.2 767 1006.42 766.24 1005.14 764.72C1004 763.387 1003.42 761.667 1003.42 759.56V755.48L1008.42 752.84V759.24C1008.42 760.307 1008.64 761.067 1009.06 761.52C1009.52 761.947 1010.25 762.16 1011.26 762.16H1024.3C1025.32 762.16 1026.04 761.933 1026.46 761.48C1026.89 761.027 1027.1 760.28 1027.1 759.24V751.88L1032.14 749.24V759.28C1032.14 760.32 1032.36 761.067 1032.78 761.52C1033.21 761.947 1033.93 762.16 1034.94 762.16ZM1049.58 762.16H1053.18V767H1049.1C1047.16 767 1045.54 766.48 1044.26 765.44C1042.98 766.48 1041.37 767 1039.42 767H1035.34V762.16H1038.94C1039.96 762.16 1040.68 761.947 1041.1 761.52C1041.53 761.067 1041.74 760.32 1041.74 759.28V751.88L1046.78 749.24V759.28C1046.78 760.32 1047 761.067 1047.42 761.52C1047.85 761.947 1048.57 762.16 1049.58 762.16ZM1039.22 770.64C1040.02 770.64 1040.65 770.867 1041.1 771.32C1041.58 771.8 1041.82 772.44 1041.82 773.24C1041.82 775.027 1040.96 775.92 1039.22 775.92C1038.42 775.92 1037.78 775.68 1037.3 775.2C1036.82 774.72 1036.58 774.067 1036.58 773.24C1036.58 771.507 1037.46 770.64 1039.22 770.64ZM1045.38 770.64C1046.18 770.64 1046.81 770.867 1047.26 771.32C1047.74 771.8 1047.98 772.44 1047.98 773.24C1047.98 775.027 1047.12 775.92 1045.38 775.92C1044.58 775.92 1043.94 775.68 1043.46 775.2C1042.98 774.72 1042.74 774.067 1042.74 773.24C1042.74 771.507 1043.62 770.64 1045.38 770.64ZM1057.17 755.96C1057.17 753.56 1057.92 751.68 1059.41 750.32C1060.72 749.147 1062.4 748.56 1064.45 748.56C1067.09 748.56 1069.15 749.533 1070.61 751.48C1071.87 753.107 1072.49 755.2 1072.49 757.76C1072.49 760.72 1071.71 763.053 1070.13 764.76C1068.72 766.253 1066.92 767 1064.73 767C1062.6 767 1060.85 766.533 1059.49 765.6C1058.21 766.533 1056.67 767 1054.85 767H1050.77V762.16H1054.37C1055.39 762.16 1056.11 761.947 1056.53 761.52C1056.96 761.067 1057.17 760.32 1057.17 759.28V755.96ZM1062.21 759.92C1062.21 761.413 1063 762.16 1064.57 762.16C1066.55 762.16 1067.53 760.64 1067.53 757.6C1067.53 754.693 1066.51 753.24 1064.45 753.24C1062.96 753.24 1062.21 754.12 1062.21 755.88V759.92ZM1077.57 738.96L1078.85 736.64H1080.05C1079.75 736.107 1079.61 735.56 1079.61 735C1079.61 734.147 1079.91 733.413 1080.53 732.8C1081.17 732.187 1081.93 731.88 1082.81 731.88C1083.61 731.88 1084.35 732.16 1085.05 732.72V735.04C1084.41 734.48 1083.77 734.2 1083.13 734.2C1082.25 734.2 1081.81 734.6 1081.81 735.4C1081.81 735.8 1081.98 736.213 1082.33 736.64H1086.29L1085.01 738.96H1077.57ZM1079.09 767V743.88L1084.13 741.2V767H1079.09ZM1111.8 748.4C1111 748.4 1110.36 748.16 1109.88 747.68C1109.4 747.173 1109.16 746.52 1109.16 745.72C1109.16 744.947 1109.4 744.32 1109.88 743.84C1110.36 743.36 1111 743.12 1111.8 743.12C1112.6 743.12 1113.23 743.36 1113.68 743.84C1114.16 744.293 1114.4 744.92 1114.4 745.72C1114.4 747.507 1113.54 748.4 1111.8 748.4ZM1117.96 748.4C1117.16 748.4 1116.52 748.16 1116.04 747.68C1115.56 747.2 1115.32 746.547 1115.32 745.72C1115.32 743.987 1116.2 743.12 1117.96 743.12C1118.76 743.12 1119.39 743.36 1119.84 743.84C1120.32 744.293 1120.56 744.92 1120.56 745.72C1120.56 747.507 1119.7 748.4 1117.96 748.4ZM1132.44 762.16H1135.24V767H1131.96C1129.99 767 1128.38 766.48 1127.12 765.44C1125.84 766.48 1124.22 767 1122.24 767H1107.96C1105.7 767 1103.92 766.24 1102.64 764.72C1101.5 763.387 1100.92 761.667 1100.92 759.56V755.48L1105.92 752.84V759.24C1105.92 760.307 1106.14 761.067 1106.56 761.52C1107.02 761.947 1107.75 762.16 1108.76 762.16H1121.8C1122.82 762.16 1123.54 761.933 1123.96 761.48C1124.39 761.027 1124.6 760.28 1124.6 759.24V751.88L1129.64 749.24V759.28C1129.64 760.32 1129.86 761.067 1130.28 761.52C1130.71 761.947 1131.43 762.16 1132.44 762.16ZM1147.08 762.16H1150.68V767H1146.6C1144.66 767 1143.04 766.48 1141.76 765.44C1140.48 766.48 1138.87 767 1136.92 767H1132.84V762.16H1136.44C1137.46 762.16 1138.18 761.947 1138.6 761.52C1139.03 761.067 1139.24 760.32 1139.24 759.28V751.88L1144.28 749.24V759.28C1144.28 760.32 1144.5 761.067 1144.92 761.52C1145.35 761.947 1146.07 762.16 1147.08 762.16ZM1136.72 770.64C1137.52 770.64 1138.15 770.867 1138.6 771.32C1139.08 771.8 1139.32 772.44 1139.32 773.24C1139.32 775.027 1138.46 775.92 1136.72 775.92C1135.92 775.92 1135.28 775.68 1134.8 775.2C1134.32 774.72 1134.08 774.067 1134.08 773.24C1134.08 771.507 1134.96 770.64 1136.72 770.64ZM1142.88 770.64C1143.68 770.64 1144.31 770.867 1144.76 771.32C1145.24 771.8 1145.48 772.44 1145.48 773.24C1145.48 775.027 1144.62 775.92 1142.88 775.92C1142.08 775.92 1141.44 775.68 1140.96 775.2C1140.48 774.72 1140.24 774.067 1140.24 773.24C1140.24 771.507 1141.12 770.64 1142.88 770.64ZM1148.27 767V762.16H1152.51C1153.53 762.16 1154.25 761.947 1154.67 761.52C1155.13 761.067 1155.35 760.32 1155.35 759.28V754L1160.39 751.36V759.28C1160.39 760.32 1160.61 761.067 1161.03 761.52C1161.46 761.947 1162.18 762.16 1163.19 762.16H1165.91C1166.93 762.16 1167.65 761.947 1168.07 761.52C1168.5 761.067 1168.71 760.32 1168.71 759.28V752.96L1173.75 750.28V759.28C1173.75 760.32 1173.97 761.067 1174.39 761.52C1174.85 761.947 1175.58 762.16 1176.59 762.16H1179.31C1180.33 762.16 1181.05 761.947 1181.47 761.52C1181.9 761.067 1182.11 760.32 1182.11 759.28V751.88L1187.15 749.24V759.52C1187.15 761.893 1186.43 763.76 1184.99 765.12C1183.74 766.32 1182.09 766.947 1180.03 767H1176.07C1174.1 767 1172.49 766.413 1171.23 765.24C1170.09 766.387 1168.57 766.973 1166.67 767H1162.71C1160.74 767 1159.13 766.413 1157.87 765.24C1156.62 766.413 1155.01 767 1153.03 767H1148.27ZM1211.17 764.52C1211.17 767.613 1210.32 770.12 1208.61 772.04C1207.04 773.827 1204.96 774.72 1202.37 774.72C1200.69 774.72 1199.05 774.293 1197.45 773.44V769.04C1198.84 769.813 1200.2 770.2 1201.53 770.2C1203 770.2 1204.13 769.72 1204.93 768.76C1205.76 767.827 1206.17 766.52 1206.17 764.84V751.92L1211.17 749.24V764.52ZM1233.79 743.88L1238.83 741.2V758.68C1238.83 761.267 1238.04 763.333 1236.47 764.88C1235 766.293 1233.07 767 1230.67 767H1215.59L1218.11 762.16H1223.39V749.08L1228.43 746.4V762.16H1230.39C1231.61 762.16 1232.48 761.893 1232.99 761.36C1233.52 760.827 1233.79 759.92 1233.79 758.64V743.88ZM1255.04 765.84C1254.22 766 1253.36 766.08 1252.48 766.08C1250.03 766.08 1248.07 765.16 1246.6 763.32C1245.4 761.773 1244.8 759.907 1244.8 757.72C1244.8 754.787 1245.6 752.48 1247.2 750.8C1248.62 749.307 1250.48 748.56 1252.8 748.56C1255.18 748.56 1257.03 749.32 1258.36 750.84C1259.51 752.147 1260.08 753.853 1260.08 755.96V764.52C1260.08 767.667 1259.26 770.147 1257.6 771.96C1256.06 773.667 1253.95 774.52 1251.28 774.52C1249.6 774.52 1247.96 774.067 1246.36 773.16V768.8C1247.8 769.627 1249.24 770.04 1250.68 770.04C1253.27 770.04 1254.72 768.64 1255.04 765.84ZM1255.08 755.88C1255.08 754.12 1254.32 753.24 1252.8 753.24C1251.84 753.24 1251.08 753.627 1250.52 754.4C1249.99 755.173 1249.72 756.227 1249.72 757.56C1249.72 760.387 1250.74 761.8 1252.76 761.8C1253.83 761.8 1254.6 761.533 1255.08 761V755.88ZM1263.7 767L1266.22 762.16H1272.54C1273.9 762.16 1274.58 761.373 1274.58 759.8C1274.58 756.84 1273.17 754.573 1270.34 753L1272.82 748.76C1277.35 751.427 1279.62 755.133 1279.62 759.88C1279.62 764.627 1277.57 767 1273.46 767H1263.7ZM1292.77 779.6V769.64C1292.77 767.373 1293.44 765.56 1294.77 764.2C1295.95 763.027 1297.52 762.36 1299.49 762.2C1298.77 761.08 1298.41 759.6 1298.41 757.76C1298.41 754.827 1299.21 752.507 1300.81 750.8C1302.23 749.307 1304.09 748.56 1306.41 748.56C1308.79 748.56 1310.64 749.32 1311.97 750.84C1313.12 752.147 1313.69 753.853 1313.69 755.96V760.72C1313.67 762.693 1313 764.227 1311.69 765.32C1310.39 766.413 1308.55 766.973 1306.17 767H1300.61C1299.6 767 1298.88 767.213 1298.45 767.64C1298.03 768.093 1297.81 768.84 1297.81 769.88V776.96L1292.77 779.6ZM1308.65 755.88C1308.65 754.12 1307.91 753.24 1306.41 753.24C1305.45 753.24 1304.69 753.627 1304.13 754.4C1303.6 755.173 1303.33 756.24 1303.33 757.6C1303.33 760.64 1304.33 762.16 1306.33 762.16C1307.88 762.16 1308.65 761.413 1308.65 759.92V755.88ZM1339.49 762.16V767H1334.57C1334.39 769.4 1333.32 771.32 1331.37 772.76C1329.77 773.933 1327.91 774.52 1325.77 774.52C1324.09 774.52 1322.45 774.067 1320.85 773.16V768.8C1322.29 769.627 1323.73 770.04 1325.17 770.04C1326.29 770.04 1327.28 769.733 1328.13 769.12C1329.01 768.507 1329.49 767.773 1329.57 766.92C1329.36 766.893 1329.03 766.867 1328.57 766.84C1328.12 766.787 1327.77 766.747 1327.53 766.72C1324.79 766.427 1322.67 765.347 1321.17 763.48C1319.92 761.907 1319.29 760 1319.29 757.76C1319.29 754.827 1320.09 752.507 1321.69 750.8C1323.11 749.307 1324.97 748.56 1327.29 748.56C1329.67 748.56 1331.52 749.32 1332.85 750.84C1334 752.147 1334.57 753.853 1334.57 755.96V762.16H1339.49ZM1329.57 755.88C1329.57 754.12 1328.81 753.24 1327.29 753.24C1325.27 753.24 1324.25 754.693 1324.25 757.6C1324.25 760.187 1325.43 761.627 1327.77 761.92C1328.15 762 1328.75 762.067 1329.57 762.12V755.88ZM1337.1 767V762.16H1341.34C1342.35 762.16 1343.07 761.947 1343.5 761.52C1343.95 761.067 1344.18 760.32 1344.18 759.28V754L1349.22 751.36V759.28C1349.22 760.32 1349.43 761.067 1349.86 761.52C1350.29 761.947 1351.01 762.16 1352.02 762.16H1354.74C1355.75 762.16 1356.47 761.947 1356.9 761.52C1357.33 761.067 1357.54 760.32 1357.54 759.28V752.96L1362.58 750.28V759.28C1362.58 760.32 1362.79 761.067 1363.22 761.52C1363.67 761.947 1364.41 762.16 1365.42 762.16H1368.14C1369.15 762.16 1369.87 761.947 1370.3 761.52C1370.73 761.067 1370.94 760.32 1370.94 759.28V751.88L1375.98 749.24V758.64C1375.98 759.92 1376.23 760.827 1376.74 761.36C1377.27 761.893 1378.15 762.16 1379.38 762.16H1383.06V767H1379.1C1376.86 767 1375.06 766.36 1373.7 765.08C1372.5 766.333 1370.89 766.973 1368.86 767H1364.9C1362.93 767 1361.31 766.413 1360.06 765.24C1358.91 766.387 1357.39 766.973 1355.5 767H1351.54C1349.57 767 1347.95 766.413 1346.7 765.24C1345.45 766.413 1343.83 767 1341.86 767H1337.1ZM1394.9 762.16H1398.5V767H1394.42C1392.47 767 1390.86 766.48 1389.58 765.44C1388.3 766.48 1386.68 767 1384.74 767H1380.66V762.16H1384.26C1385.27 762.16 1385.99 761.947 1386.42 761.52C1386.84 761.067 1387.06 760.32 1387.06 759.28V751.88L1392.1 749.24V759.28C1392.1 760.32 1392.31 761.067 1392.74 761.52C1393.16 761.947 1393.88 762.16 1394.9 762.16ZM1389.82 770.64C1390.62 770.64 1391.24 770.867 1391.7 771.32C1392.18 771.8 1392.42 772.44 1392.42 773.24C1392.42 775.027 1391.55 775.92 1389.82 775.92C1389.02 775.92 1388.38 775.68 1387.9 775.2C1387.42 774.72 1387.18 774.067 1387.18 773.24C1387.18 772.467 1387.42 771.84 1387.9 771.36C1388.38 770.88 1389.02 770.64 1389.82 770.64ZM1396.09 767V762.16H1399.69C1400.7 762.16 1401.42 761.947 1401.85 761.52C1402.27 761.067 1402.49 760.32 1402.49 759.28V751.88L1407.53 749.24V759.52C1407.53 761.947 1406.78 763.84 1405.29 765.2C1403.98 766.4 1402.27 767 1400.17 767H1396.09ZM1398.25 775.92C1397.45 775.92 1396.81 775.68 1396.33 775.2C1395.85 774.72 1395.61 774.067 1395.61 773.24C1395.61 771.507 1396.49 770.64 1398.25 770.64C1399.05 770.64 1399.67 770.867 1400.13 771.32C1400.61 771.8 1400.85 772.44 1400.85 773.24C1400.85 775.027 1399.98 775.92 1398.25 775.92ZM1404.41 775.92C1403.61 775.92 1402.97 775.68 1402.49 775.2C1402.01 774.72 1401.77 774.067 1401.77 773.24C1401.77 771.507 1402.65 770.64 1404.41 770.64C1405.21 770.64 1405.83 770.867 1406.29 771.32C1406.77 771.8 1407.01 772.44 1407.01 773.24C1407.01 775.027 1406.14 775.92 1404.41 775.92ZM1414.71 767V743.88L1419.75 741.2V767H1414.71ZM1457.51 762.16H1461.07V767H1456.99C1455.18 767 1453.63 766.533 1452.35 765.6C1450.99 766.533 1449.26 767 1447.15 767H1441.59C1440.58 767 1439.86 767.213 1439.43 767.64C1439 768.093 1438.79 768.84 1438.79 769.88V776.96L1433.75 779.6V769.64C1433.75 767.533 1434.32 765.813 1435.47 764.48C1436.64 763.147 1438.22 762.387 1440.19 762.2C1439.66 760.893 1439.39 759.413 1439.39 757.76C1439.39 754.827 1440.19 752.507 1441.79 750.8C1443.2 749.307 1445.07 748.56 1447.39 748.56C1449.76 748.56 1451.62 749.32 1452.95 750.84C1454.1 752.147 1454.67 753.853 1454.67 755.96V759.28C1454.67 760.32 1454.88 761.067 1455.31 761.52C1455.76 761.947 1456.5 762.16 1457.51 762.16ZM1449.63 759.92V755.88C1449.63 754.12 1448.88 753.24 1447.39 753.24C1446.43 753.24 1445.67 753.627 1445.11 754.4C1444.58 755.173 1444.31 756.24 1444.31 757.6C1444.31 760.64 1445.31 762.16 1447.31 762.16C1448.86 762.16 1449.63 761.413 1449.63 759.92ZM1458.66 767V762.16H1462.26C1463.28 762.16 1464 761.947 1464.42 761.52C1464.85 761.067 1465.06 760.32 1465.06 759.28V751.88L1470.1 749.24V759.52C1470.1 761.947 1469.36 763.84 1467.86 765.2C1466.56 766.4 1464.85 767 1462.74 767H1458.66ZM1460.82 775.92C1460.02 775.92 1459.38 775.68 1458.9 775.2C1458.42 774.72 1458.18 774.067 1458.18 773.24C1458.18 771.507 1459.06 770.64 1460.82 770.64C1461.62 770.64 1462.25 770.867 1462.7 771.32C1463.18 771.8 1463.42 772.44 1463.42 773.24C1463.42 775.027 1462.56 775.92 1460.82 775.92ZM1466.98 775.92C1466.18 775.92 1465.54 775.68 1465.06 775.2C1464.58 774.72 1464.34 774.067 1464.34 773.24C1464.34 771.507 1465.22 770.64 1466.98 770.64C1467.78 770.64 1468.41 770.867 1468.86 771.32C1469.34 771.8 1469.58 772.44 1469.58 773.24C1469.58 775.027 1468.72 775.92 1466.98 775.92ZM1487.11 764.52C1487.11 767.613 1486.26 770.12 1484.55 772.04C1482.98 773.827 1480.9 774.72 1478.31 774.72C1476.63 774.72 1474.99 774.293 1473.39 773.44V769.04C1474.78 769.813 1476.14 770.2 1477.47 770.2C1478.94 770.2 1480.07 769.72 1480.87 768.76C1481.7 767.827 1482.11 766.52 1482.11 764.84V751.92L1487.11 749.24V764.52ZM1513.32 762.16V767H1508.4C1508.22 769.4 1507.15 771.32 1505.2 772.76C1503.6 773.933 1501.74 774.52 1499.6 774.52C1497.92 774.52 1496.28 774.067 1494.68 773.16V768.8C1496.12 769.627 1497.56 770.04 1499 770.04C1500.12 770.04 1501.11 769.733 1501.96 769.12C1502.84 768.507 1503.32 767.773 1503.4 766.92C1503.19 766.893 1502.86 766.867 1502.4 766.84C1501.95 766.787 1501.6 766.747 1501.36 766.72C1498.62 766.427 1496.5 765.347 1495 763.48C1493.75 761.907 1493.12 760 1493.12 757.76C1493.12 754.827 1493.92 752.507 1495.52 750.8C1496.94 749.307 1498.8 748.56 1501.12 748.56C1503.5 748.56 1505.35 749.32 1506.68 750.84C1507.83 752.147 1508.4 753.853 1508.4 755.96V762.16H1513.32ZM1503.4 755.88C1503.4 754.12 1502.64 753.24 1501.12 753.24C1499.1 753.24 1498.08 754.693 1498.08 757.6C1498.08 760.187 1499.26 761.627 1501.6 761.92C1501.98 762 1502.58 762.067 1503.4 762.12V755.88ZM1510.93 767V762.16H1513.45C1514.68 762.16 1515.54 761.893 1516.05 761.36C1516.58 760.827 1516.85 759.92 1516.85 758.64V743.88L1521.85 741.2V758.68C1521.85 761.267 1521.06 763.333 1519.49 764.88C1518.05 766.293 1516.13 767 1513.73 767H1510.93Z" fill="#28293D"/>
<path d="M647 473C651.418 473 655 469.418 655 465C655 460.582 651.418 457 647 457C642.582 457 639 460.582 639 465C639 469.418 642.582 473 647 473Z" stroke="#18191F" stroke-width="2" stroke-linecap="round" stroke-linejoin="round"/>
<path d="M657 475L652.65 470.65" stroke="#18191F" stroke-width="2" stroke-linecap="round" stroke-linejoin="round"/>
<path d="M1602.1 476C1600.06 476 1598.47 475.316 1597.32 473.948C1596.28 472.748 1595.77 471.2 1595.77 469.304V465.632L1600.27 463.256V469.016C1600.27 469.976 1600.46 470.66 1600.84 471.068C1601.25 471.452 1601.91 471.644 1602.82 471.644H1614.56C1615.47 471.644 1616.12 471.44 1616.5 471.032C1616.89 470.624 1617.08 469.952 1617.08 469.016V462.392L1621.62 460.016V469.304C1621.62 471.488 1620.93 473.192 1619.56 474.416C1618.36 475.472 1616.83 476 1614.96 476H1602.1ZM1608.26 484.028C1607.54 484.028 1606.96 483.812 1606.53 483.38C1606.1 482.948 1605.88 482.36 1605.88 481.616C1605.88 480.92 1606.1 480.356 1606.53 479.924C1606.96 479.492 1607.54 479.276 1608.26 479.276C1608.98 479.276 1609.54 479.48 1609.95 479.888C1610.38 480.32 1610.6 480.896 1610.6 481.616C1610.6 483.224 1609.82 484.028 1608.26 484.028ZM1634.59 473.768C1634.59 476.552 1633.82 478.808 1632.29 480.536C1630.87 482.144 1629 482.948 1626.67 482.948C1625.16 482.948 1623.68 482.564 1622.24 481.796V477.836C1623.49 478.532 1624.72 478.88 1625.92 478.88C1627.24 478.88 1628.26 478.448 1628.98 477.584C1629.72 476.744 1630.09 475.568 1630.09 474.056V462.428L1634.59 460.016V473.768ZM1638.2 476L1640.47 471.644H1646.16C1647.38 471.644 1648 470.936 1648 469.52C1648 466.856 1646.72 464.816 1644.18 463.4L1646.41 459.584C1650.49 461.984 1652.53 465.32 1652.53 469.592C1652.53 473.864 1650.68 476 1646.99 476H1638.2Z" fill="black"/>
<path d="M1022.83 474C1021.47 474 1020.43 473.56 1019.69 472.68C1019.08 471.928 1018.78 470.976 1018.78 469.824V459.36L1020.39 458.52V469.776C1020.39 471.6 1021.27 472.512 1023.03 472.512H1023.87V474H1022.83ZM1027.39 460.56C1026.74 460.56 1026.41 460.224 1026.41 459.552C1026.41 458.912 1026.74 458.592 1027.39 458.592C1028.02 458.592 1028.33 458.912 1028.33 459.552C1028.33 460.224 1028.02 460.56 1027.39 460.56ZM1031.11 472.512H1031.95V474H1030.92C1029.48 474 1028.4 473.512 1027.68 472.536C1026.93 473.512 1025.84 474 1024.42 474H1023.38V472.512H1024.23C1025.99 472.512 1026.87 471.6 1026.87 469.776V464.568L1028.47 463.728V469.776C1028.47 471.6 1029.35 472.512 1031.11 472.512ZM1048.61 474H1042.68C1041.81 474 1040.93 473.816 1040.04 473.448C1039.13 473.816 1038.24 474 1037.37 474H1031.47V472.512H1037.28C1037.6 472.512 1037.93 472.488 1038.26 472.44C1037 471.528 1035.62 470.024 1034.13 467.928V466.944C1035.8 464.608 1037.76 463.44 1040.01 463.44C1042.25 463.44 1044.22 464.624 1045.92 466.992V467.928C1044.43 470.024 1043.06 471.528 1041.81 472.44C1042.13 472.488 1042.45 472.512 1042.77 472.512H1048.58L1048.61 474ZM1035.53 467.448C1037.21 469.688 1038.7 471.144 1040.01 471.816C1041.31 471.144 1042.81 469.68 1044.53 467.424C1043.25 465.744 1041.74 464.904 1040.01 464.904H1039.94C1038.31 464.904 1036.84 465.752 1035.53 467.448ZM1051.62 467.568C1051.62 466.208 1052.02 465.152 1052.84 464.4C1053.54 463.76 1054.47 463.44 1055.62 463.44C1057.11 463.44 1058.26 463.984 1059.06 465.072C1059.74 466 1060.09 467.216 1060.09 468.72C1060.09 470.432 1059.65 471.768 1058.77 472.728C1058 473.576 1057 474 1055.77 474C1054.26 474 1053.14 473.52 1052.41 472.56C1051.69 473.52 1050.61 474 1049.17 474H1048.13V472.512H1048.98C1050.74 472.512 1051.62 471.6 1051.62 469.776V467.568ZM1053.22 469.872C1053.22 471.632 1054.09 472.512 1055.82 472.512C1056.65 472.512 1057.3 472.176 1057.78 471.504C1058.26 470.832 1058.5 469.896 1058.5 468.696C1058.5 467.512 1058.25 466.584 1057.74 465.912C1057.24 465.24 1056.54 464.904 1055.62 464.904C1054.02 464.904 1053.22 465.84 1053.22 467.712V469.872ZM1082.14 472.512H1082.95V474H1081.92C1080.5 474 1079.42 473.52 1078.7 472.56C1077.97 473.504 1076.88 473.984 1075.44 474H1072.39C1070.63 474 1069.75 474.912 1069.75 476.736V480.72L1068.14 481.56V476.688C1068.14 475.36 1068.54 474.32 1069.32 473.568C1070.02 472.88 1070.96 472.528 1072.13 472.512C1071.38 471.552 1071 470.288 1071 468.72C1071 466.992 1071.45 465.656 1072.34 464.712C1073.13 463.864 1074.17 463.44 1075.46 463.44C1076.79 463.44 1077.82 463.856 1078.54 464.688C1079.16 465.408 1079.47 466.368 1079.47 467.568V469.776C1079.47 471.6 1080.36 472.512 1082.14 472.512ZM1077.86 469.872V467.712C1077.86 465.84 1077.06 464.904 1075.46 464.904C1074.55 464.904 1073.84 465.24 1073.33 465.912C1072.83 466.584 1072.58 467.512 1072.58 468.696C1072.58 469.896 1072.82 470.832 1073.3 471.504C1073.78 472.176 1074.45 472.512 1075.3 472.512C1077.01 472.512 1077.86 471.632 1077.86 469.872ZM1098.57 460.56C1097.92 460.56 1097.59 460.224 1097.59 459.552C1097.59 458.912 1097.92 458.592 1098.57 458.592C1099.2 458.592 1099.51 458.912 1099.51 459.552C1099.51 460.224 1099.2 460.56 1098.57 460.56ZM1106.47 472.512H1107.31V474H1106.28C1104.84 474 1103.76 473.512 1103.04 472.536C1102.32 473.512 1101.23 474 1099.77 474H1090.01C1088.57 474 1087.49 473.512 1086.77 472.536C1086.01 473.512 1084.93 474 1083.5 474H1082.47V472.512H1083.31C1085.07 472.512 1085.95 471.6 1085.95 469.776V466.32L1087.56 465.48V469.776C1087.56 471.28 1088.14 472.16 1089.31 472.416C1089.9 469.952 1090.93 467.888 1092.41 466.224C1094.05 464.368 1095.99 463.44 1098.21 463.44C1100.01 463.44 1101.43 464.056 1102.49 465.288C1103.38 466.344 1103.83 467.648 1103.83 469.2V469.824C1103.83 471.616 1104.71 472.512 1106.47 472.512ZM1099.65 472.512C1101.37 472.512 1102.22 471.568 1102.22 469.68V469.2C1102.22 467.856 1101.8 466.776 1100.95 465.96C1100.23 465.256 1099.33 464.904 1098.24 464.904C1096.37 464.904 1094.7 465.784 1093.25 467.544C1092.14 468.888 1091.31 470.544 1090.75 472.512H1099.65ZM1111 460.56C1110.34 460.56 1110.01 460.224 1110.01 459.552C1110.01 458.912 1110.34 458.592 1111 458.592C1111.62 458.592 1111.93 458.912 1111.93 459.552C1111.93 460.224 1111.62 460.56 1111 460.56ZM1106.82 474V472.512H1107.66C1109.42 472.512 1110.3 471.6 1110.3 469.776V464.568L1111.91 463.728V469.824C1111.91 471.168 1111.52 472.216 1110.73 472.968C1110.01 473.656 1109.05 474 1107.85 474H1106.82ZM1116.23 474V459.36L1117.84 458.52V474H1116.23Z" fill="black"/>
<path d="M1142.57 474C1141.21 474 1140.16 473.56 1139.42 472.68C1138.82 471.928 1138.51 470.976 1138.51 469.824V459.36L1140.12 458.52V469.776C1140.12 471.6 1141 472.512 1142.76 472.512H1143.6V474H1142.57ZM1147.13 460.56C1146.47 460.56 1146.14 460.224 1146.14 459.552C1146.14 458.912 1146.47 458.592 1147.13 458.592C1147.75 458.592 1148.06 458.912 1148.06 459.552C1148.06 460.224 1147.75 460.56 1147.13 460.56ZM1150.85 472.512H1151.69V474H1150.66C1149.22 474 1148.14 473.512 1147.42 472.536C1146.66 473.512 1145.58 474 1144.15 474H1143.12V472.512H1143.96C1145.72 472.512 1146.6 471.6 1146.6 469.776V464.568L1148.21 463.728V469.776C1148.21 471.6 1149.09 472.512 1150.85 472.512ZM1168.34 474H1162.41C1161.55 474 1160.67 473.816 1159.77 473.448C1158.86 473.816 1157.97 474 1157.11 474H1151.21V472.512H1157.01C1157.33 472.512 1157.66 472.488 1158 472.44C1156.73 471.528 1155.36 470.024 1153.87 467.928V466.944C1155.53 464.608 1157.49 463.44 1159.75 463.44C1161.99 463.44 1163.96 464.624 1165.65 466.992V467.928C1164.17 470.024 1162.8 471.528 1161.55 472.44C1161.87 472.488 1162.19 472.512 1162.51 472.512H1168.32L1168.34 474ZM1155.26 467.448C1156.94 469.688 1158.44 471.144 1159.75 471.816C1161.05 471.144 1162.55 469.68 1164.26 467.424C1162.98 465.744 1161.48 464.904 1159.75 464.904H1159.68C1158.05 464.904 1156.57 465.752 1155.26 467.448ZM1171.35 467.568C1171.35 466.208 1171.76 465.152 1172.57 464.4C1173.28 463.76 1174.21 463.44 1175.36 463.44C1176.85 463.44 1177.99 463.984 1178.79 465.072C1179.48 466 1179.82 467.216 1179.82 468.72C1179.82 470.432 1179.38 471.768 1178.5 472.728C1177.73 473.576 1176.73 474 1175.5 474C1174 474 1172.88 473.52 1172.14 472.56C1171.42 473.52 1170.34 474 1168.9 474H1167.87V472.512H1168.71C1170.47 472.512 1171.35 471.6 1171.35 469.776V467.568ZM1172.96 469.872C1172.96 471.632 1173.82 472.512 1175.55 472.512C1176.38 472.512 1177.04 472.176 1177.52 471.504C1178 470.832 1178.24 469.896 1178.24 468.696C1178.24 467.512 1177.98 466.584 1177.47 465.912C1176.97 465.24 1176.27 464.904 1175.36 464.904C1173.76 464.904 1172.96 465.84 1172.96 467.712V469.872ZM1204.17 472.512H1205.01V474H1203.98C1202.96 474 1202.1 473.744 1201.41 473.232C1201.29 474.928 1200.61 476.264 1199.37 477.24C1198.27 478.12 1196.88 478.56 1195.2 478.56C1193.12 478.56 1191.52 477.848 1190.4 476.424C1189.52 475.32 1189.08 474 1189.08 472.464C1189.08 471.072 1189.43 469.896 1190.13 468.936L1191.72 468.576C1190.93 469.728 1190.54 470.992 1190.54 472.368C1190.54 473.776 1191 474.928 1191.91 475.824C1192.77 476.672 1193.87 477.096 1195.2 477.096C1196.73 477.096 1197.93 476.632 1198.77 475.704C1199.49 474.936 1199.85 473.936 1199.85 472.704V459.36L1201.44 458.52V469.8V469.848C1201.44 471.624 1202.35 472.512 1204.17 472.512ZM1211.37 472.416C1211.96 469.952 1212.99 467.888 1214.46 466.224C1216.11 464.368 1218.05 463.44 1220.27 463.44C1222.06 463.44 1223.49 464.056 1224.54 465.288C1225.44 466.344 1225.89 467.648 1225.89 469.2V469.872C1225.89 471.232 1225.47 472.288 1224.64 473.04C1223.93 473.68 1223 474 1221.83 474H1212.06C1210.62 474 1209.54 473.512 1208.82 472.536C1208.07 473.512 1206.98 474 1205.56 474H1204.53V472.512H1205.37C1207.13 472.512 1208.01 471.6 1208.01 469.776V466.32L1209.61 465.48V469.776C1209.61 471.28 1210.2 472.16 1211.37 472.416ZM1224.28 469.68V469.2C1224.28 467.856 1223.85 466.776 1223.01 465.96C1222.29 465.256 1221.38 464.904 1220.29 464.904C1218.42 464.904 1216.76 465.784 1215.3 467.544C1214.2 468.888 1213.37 470.544 1212.81 472.512H1221.71C1223.42 472.512 1224.28 471.568 1224.28 469.68ZM1229.78 474V459.36L1231.39 458.52V474H1229.78ZM1246.24 472.512V474H1243.7C1243.68 475.056 1243.34 475.984 1242.67 476.784C1242.01 477.6 1241.15 478.136 1240.1 478.392C1239.71 478.504 1239.3 478.56 1238.85 478.56C1237.92 478.56 1237.02 478.336 1236.14 477.888V476.472C1236.97 476.92 1237.79 477.144 1238.61 477.144C1239.27 477.144 1239.84 477 1240.34 476.712C1240.83 476.456 1241.25 476.064 1241.59 475.536C1241.92 475.024 1242.09 474.512 1242.09 474L1240.05 473.928C1238.27 473.848 1236.95 473.288 1236.07 472.248C1235.35 471.368 1234.99 470.192 1234.99 468.72C1234.99 466.992 1235.43 465.656 1236.33 464.712C1237.13 463.864 1238.2 463.44 1239.55 463.44C1240.94 463.44 1242 463.856 1242.74 464.688C1243.38 465.408 1243.7 466.368 1243.7 467.568V472.512H1246.24ZM1242.09 467.736C1242.09 465.848 1241.24 464.904 1239.55 464.904C1238.6 464.904 1237.87 465.24 1237.34 465.912C1236.83 466.568 1236.57 467.496 1236.57 468.696C1236.57 471.08 1237.75 472.328 1240.1 472.44C1240.8 472.488 1241.47 472.512 1242.09 472.512V467.736ZM1247.19 460.56C1246.54 460.56 1246.21 460.224 1246.21 459.552C1246.21 458.912 1246.54 458.592 1247.19 458.592C1247.82 458.592 1248.13 458.912 1248.13 459.552C1248.13 460.224 1247.82 460.56 1247.19 460.56ZM1249.93 460.56C1249.27 460.56 1248.94 460.224 1248.94 459.552C1248.94 458.912 1249.27 458.592 1249.93 458.592C1250.55 458.592 1250.86 458.912 1250.86 459.552C1250.86 460.224 1250.55 460.56 1249.93 460.56ZM1245.75 474V472.512H1246.59C1248.35 472.512 1249.23 471.6 1249.23 469.776V464.568L1250.84 463.728V469.824C1250.84 471.168 1250.45 472.216 1249.66 472.968C1248.94 473.656 1247.98 474 1246.78 474H1245.75Z" fill="black"/>
<path d="M1275.55 463.008C1274.9 463.008 1274.57 462.672 1274.57 462C1274.57 461.36 1274.9 461.04 1275.55 461.04C1276.18 461.04 1276.49 461.36 1276.49 462C1276.49 462.672 1276.18 463.008 1275.55 463.008ZM1284.43 472.512H1285.27V474H1284.24C1283.25 474 1282.43 473.768 1281.77 473.304C1281.66 474.984 1280.99 476.304 1279.75 477.264C1278.67 478.128 1277.29 478.56 1275.63 478.56C1273.59 478.56 1272.02 477.84 1270.9 476.4C1270.02 475.296 1269.58 473.976 1269.58 472.44C1269.58 471.064 1269.93 469.88 1270.63 468.888L1272.19 468.576C1271.43 469.744 1271.04 470.992 1271.04 472.32C1271.04 473.728 1271.5 474.888 1272.41 475.8C1273.26 476.648 1274.33 477.072 1275.63 477.072C1277.15 477.072 1278.32 476.624 1279.15 475.728C1279.84 474.992 1280.19 474.024 1280.19 472.824V464.568L1281.79 463.728V469.776C1281.79 471.6 1282.67 472.512 1284.43 472.512ZM1299.96 472.512H1300.8V474H1299.94C1298.61 474 1297.54 473.848 1296.74 473.544C1295.96 473.24 1295.23 472.704 1294.56 471.936C1292.51 473.312 1290.14 474 1287.46 474H1284.79V472.512H1287.48C1290.97 472.512 1293.69 471.328 1295.64 468.96C1294.22 466.24 1292.5 464.88 1290.48 464.88C1289.1 464.88 1287.76 465.576 1286.45 466.968V465.384C1287.76 464.088 1289.13 463.44 1290.55 463.44H1290.6C1293.11 463.44 1295.29 465.136 1297.13 468.528V469.512C1296.63 470.152 1296.1 470.704 1295.54 471.168C1296.06 471.664 1296.63 472.016 1297.27 472.224C1297.93 472.416 1298.82 472.512 1299.96 472.512ZM1304.51 460.56C1303.85 460.56 1303.52 460.224 1303.52 459.552C1303.52 458.912 1303.85 458.592 1304.51 458.592C1305.13 458.592 1305.44 458.912 1305.44 459.552C1305.44 460.224 1305.13 460.56 1304.51 460.56ZM1300.33 474V472.512H1301.17C1302.93 472.512 1303.81 471.6 1303.81 469.776V464.568L1305.42 463.728V469.824C1305.42 471.168 1305.03 472.216 1304.24 472.968C1303.52 473.656 1302.56 474 1301.36 474H1300.33ZM1321 463.008C1320.34 463.008 1320.02 462.672 1320.02 462C1320.02 461.36 1320.34 461.04 1321 461.04C1321.62 461.04 1321.94 461.36 1321.94 462C1321.94 462.672 1321.62 463.008 1321 463.008ZM1329.88 472.512H1330.72V474H1329.69C1328.7 474 1327.87 473.768 1327.22 473.304C1327.1 474.984 1326.43 476.304 1325.2 477.264C1324.11 478.128 1322.74 478.56 1321.07 478.56C1319.04 478.56 1317.46 477.84 1316.34 476.4C1315.46 475.296 1315.02 473.976 1315.02 472.44C1315.02 471.064 1315.38 469.88 1316.08 468.888L1317.64 468.576C1316.87 469.744 1316.49 470.992 1316.49 472.32C1316.49 473.728 1316.94 474.888 1317.86 475.8C1318.7 476.648 1319.78 477.072 1321.07 477.072C1322.59 477.072 1323.77 476.624 1324.6 475.728C1325.29 474.992 1325.63 474.024 1325.63 472.824V464.568L1327.24 463.728V469.776C1327.24 471.6 1328.12 472.512 1329.88 472.512ZM1333.72 467.568C1333.72 466.208 1334.12 465.152 1334.94 464.4C1335.64 463.76 1336.57 463.44 1337.72 463.44C1339.21 463.44 1340.36 463.984 1341.16 465.072C1341.84 466 1342.19 467.216 1342.19 468.72C1342.19 470.432 1341.75 471.768 1340.87 472.728C1340.1 473.576 1339.1 474 1337.87 474C1336.36 474 1335.24 473.52 1334.51 472.56C1333.79 473.52 1332.71 474 1331.27 474H1330.24V472.512H1331.08C1332.84 472.512 1333.72 471.6 1333.72 469.776V467.568ZM1335.32 469.872C1335.32 471.632 1336.19 472.512 1337.92 472.512C1338.75 472.512 1339.4 472.176 1339.88 471.504C1340.36 470.832 1340.6 469.896 1340.6 468.696C1340.6 467.512 1340.35 466.584 1339.84 465.912C1339.34 465.24 1338.64 464.904 1337.72 464.904C1336.12 464.904 1335.32 465.84 1335.32 467.712V469.872Z" fill="black"/>
<path d="M1365.05 463.34C1364.41 463.34 1364.09 463.004 1364.09 462.332C1364.09 461.692 1364.41 461.372 1365.05 461.372C1365.69 461.372 1366.01 461.692 1366.01 462.332C1366.01 463.004 1365.69 463.34 1365.05 463.34ZM1367.81 463.34C1367.16 463.34 1366.83 463.004 1366.83 462.332C1366.83 461.692 1367.16 461.372 1367.81 461.372C1368.44 461.372 1368.75 461.692 1368.75 462.332C1368.75 463.004 1368.44 463.34 1367.81 463.34ZM1362.58 474.5C1361.4 474.5 1360.45 474.132 1359.75 473.396C1359.04 472.644 1358.69 471.636 1358.69 470.372V467.228L1360.3 466.388V470.18C1360.3 472.068 1361.18 473.012 1362.94 473.012H1370.98C1372.74 473.012 1373.62 472.068 1373.62 470.18V465.068L1375.23 464.228V470.372C1375.23 471.732 1374.81 472.788 1373.98 473.54C1373.26 474.18 1372.32 474.5 1371.15 474.5H1362.58ZM1383.61 474.5C1382.25 474.5 1381.2 474.06 1380.46 473.18C1379.85 472.428 1379.55 471.476 1379.55 470.324V459.86L1381.16 459.02V470.276C1381.16 472.1 1382.04 473.012 1383.8 473.012H1384.64V474.5H1383.61ZM1401.29 474.5H1395.37C1394.5 474.5 1393.62 474.316 1392.73 473.948C1391.81 474.316 1390.93 474.5 1390.06 474.5H1384.16V473.012H1389.97C1390.29 473.012 1390.61 472.988 1390.95 472.94C1389.69 472.028 1388.31 470.524 1386.82 468.428V467.444C1388.49 465.108 1390.45 463.94 1392.7 463.94C1394.94 463.94 1396.91 465.124 1398.61 467.492V468.428C1397.12 470.524 1395.75 472.028 1394.5 472.94C1394.82 472.988 1395.14 473.012 1395.46 473.012H1401.27L1401.29 474.5ZM1388.21 467.948C1389.89 470.188 1391.39 471.644 1392.7 472.316C1394 471.644 1395.5 470.18 1397.21 467.924C1395.93 466.244 1394.43 465.404 1392.7 465.404H1392.63C1391 465.404 1389.53 466.252 1388.21 467.948ZM1404.3 468.068C1404.3 466.708 1404.71 465.652 1405.53 464.9C1406.23 464.26 1407.16 463.94 1408.31 463.94C1409.8 463.94 1410.94 464.484 1411.74 465.572C1412.43 466.5 1412.77 467.716 1412.77 469.22C1412.77 470.932 1412.33 472.268 1411.45 473.228C1410.69 474.076 1409.69 474.5 1408.45 474.5C1406.95 474.5 1405.83 474.02 1405.09 473.06C1404.37 474.02 1403.29 474.5 1401.85 474.5H1400.82V473.012H1401.66C1403.42 473.012 1404.3 472.1 1404.3 470.276V468.068ZM1405.91 470.372C1405.91 472.132 1406.77 473.012 1408.5 473.012C1409.33 473.012 1409.99 472.676 1410.47 472.004C1410.95 471.332 1411.19 470.396 1411.19 469.196C1411.19 468.012 1410.93 467.084 1410.42 466.412C1409.93 465.74 1409.22 465.404 1408.31 465.404C1406.71 465.404 1405.91 466.34 1405.91 468.212V470.372ZM1420.8 474.5C1419.44 474.5 1418.39 474.06 1417.66 473.18C1417.05 472.428 1416.75 471.476 1416.75 470.324V459.86L1418.35 459.02V470.276C1418.35 472.1 1419.23 473.012 1420.99 473.012H1421.83V474.5H1420.8ZM1436.52 473.012H1437.36V474.5H1436.5C1435.17 474.5 1434.11 474.348 1433.31 474.044C1432.52 473.74 1431.79 473.204 1431.12 472.436C1429.07 473.812 1426.71 474.5 1424.02 474.5H1421.35V473.012H1424.04C1427.53 473.012 1430.25 471.828 1432.2 469.46C1430.78 466.74 1429.06 465.38 1427.04 465.38C1425.67 465.38 1424.32 466.076 1423.01 467.468V465.884C1424.32 464.588 1425.69 463.94 1427.11 463.94H1427.16C1429.67 463.94 1431.85 465.636 1433.69 469.028V470.012C1433.19 470.652 1432.67 471.204 1432.11 471.668C1432.62 472.164 1433.19 472.516 1433.83 472.724C1434.49 472.916 1435.39 473.012 1436.52 473.012ZM1427.69 477.02C1428.31 477.02 1428.63 477.34 1428.63 477.98C1428.63 478.652 1428.31 478.988 1427.69 478.988C1427.03 478.988 1426.71 478.652 1426.71 477.98C1426.71 477.34 1427.03 477.02 1427.69 477.02ZM1436.89 474.5V473.012H1437.56C1439.39 473.012 1440.3 472.068 1440.3 470.18V459.86L1441.91 459.02V470.204C1441.91 471.564 1441.51 472.636 1440.71 473.42C1439.96 474.14 1438.96 474.5 1437.73 474.5H1436.89ZM1446.23 474.5V459.86L1447.84 459.02V474.5H1446.23Z" fill="black"/>
<path d="M1471.46 463.34C1470.82 463.34 1470.5 463.004 1470.5 462.332C1470.5 461.692 1470.82 461.372 1471.46 461.372C1472.1 461.372 1472.42 461.692 1472.42 462.332C1472.42 463.004 1472.1 463.34 1471.46 463.34ZM1474.22 463.34C1473.56 463.34 1473.23 463.004 1473.23 462.332C1473.23 461.692 1473.56 461.372 1474.22 461.372C1474.84 461.372 1475.15 461.692 1475.15 462.332C1475.15 463.004 1474.84 463.34 1474.22 463.34ZM1468.99 474.5C1467.8 474.5 1466.86 474.132 1466.15 473.396C1465.45 472.644 1465.1 471.636 1465.1 470.372V467.228L1466.71 466.388V470.18C1466.71 472.068 1467.59 473.012 1469.35 473.012H1477.39C1479.15 473.012 1480.03 472.068 1480.03 470.18V465.068L1481.63 464.228V470.372C1481.63 471.732 1481.22 472.788 1480.39 473.54C1479.67 474.18 1478.72 474.5 1477.55 474.5H1468.99ZM1490.01 474.5C1488.65 474.5 1487.6 474.06 1486.87 473.18C1486.26 472.428 1485.96 471.476 1485.96 470.324V459.86L1487.56 459.02V470.276C1487.56 472.1 1488.44 473.012 1490.2 473.012H1491.04V474.5H1490.01ZM1514.56 473.012H1515.4V474.5H1514.37C1512.93 474.5 1511.85 474.012 1511.13 473.036C1510.41 474.012 1509.32 474.5 1507.87 474.5H1498.1C1496.66 474.5 1495.58 474.012 1494.86 473.036C1494.11 474.012 1493.02 474.5 1491.6 474.5H1490.56V473.012H1491.4C1493.16 473.012 1494.04 472.1 1494.04 470.276V466.82L1495.65 465.98V470.276C1495.65 471.78 1496.24 472.66 1497.4 472.916C1498 470.452 1499.03 468.388 1500.5 466.724C1502.15 464.868 1504.08 463.94 1506.31 463.94C1508.1 463.94 1509.52 464.556 1510.58 465.788C1511.48 466.844 1511.92 468.148 1511.92 469.7V470.324C1511.92 472.116 1512.8 473.012 1514.56 473.012ZM1507.75 473.012C1509.46 473.012 1510.32 472.068 1510.32 470.18V469.7C1510.32 468.356 1509.89 467.276 1509.04 466.46C1508.32 465.756 1507.42 465.404 1506.33 465.404C1504.46 465.404 1502.8 466.284 1501.34 468.044C1500.24 469.388 1499.4 471.044 1498.84 473.012H1507.75ZM1538.92 473.012H1539.76V474.5H1538.72C1537.28 474.5 1536.2 474.012 1535.48 473.036C1534.76 474.012 1533.68 474.5 1532.22 474.5H1522.45C1521.01 474.5 1519.93 474.012 1519.21 473.036C1518.46 474.012 1517.37 474.5 1515.95 474.5H1514.92V473.012H1515.76C1517.52 473.012 1518.4 472.1 1518.4 470.276V466.82L1520 465.98V470.276C1520 471.78 1520.59 472.66 1521.76 472.916C1522.35 470.452 1523.38 468.388 1524.85 466.724C1526.5 464.868 1528.44 463.94 1530.66 463.94C1532.45 463.94 1533.88 464.556 1534.93 465.788C1535.83 466.844 1536.28 468.148 1536.28 469.7V470.324C1536.28 472.116 1537.16 473.012 1538.92 473.012ZM1532.1 473.012C1533.81 473.012 1534.67 472.068 1534.67 470.18V469.7C1534.67 468.356 1534.24 467.276 1533.4 466.46C1532.68 465.756 1531.77 465.404 1530.68 465.404C1528.81 465.404 1527.15 466.284 1525.69 468.044C1524.59 469.388 1523.76 471.044 1523.2 473.012H1532.1ZM1545.99 461.06C1545.33 461.06 1545 460.724 1545 460.052C1545 459.412 1545.33 459.092 1545.99 459.092C1546.61 459.092 1546.92 459.412 1546.92 460.052C1546.92 460.724 1546.61 461.06 1545.99 461.06ZM1554.44 473.012H1555.28V474.5H1554.41C1553.08 474.5 1552.02 474.348 1551.22 474.044C1550.44 473.74 1549.71 473.204 1549.04 472.436C1546.99 473.812 1544.62 474.5 1541.93 474.5H1539.27V473.012H1541.96C1545.44 473.012 1548.16 471.828 1550.12 469.46C1548.69 466.74 1546.97 465.38 1544.96 465.38C1543.58 465.38 1542.24 466.076 1540.92 467.468V465.884C1542.24 464.588 1543.6 463.94 1545.03 463.94H1545.08C1547.59 463.94 1549.76 465.636 1551.6 469.028V470.012C1551.11 470.652 1550.58 471.204 1550.02 471.668C1550.53 472.164 1551.11 472.516 1551.75 472.724C1552.4 472.916 1553.3 473.012 1554.44 473.012ZM1557.23 461.132C1556.59 461.132 1556.27 460.804 1556.27 460.148C1556.27 459.492 1556.59 459.164 1557.23 459.164C1557.87 459.164 1558.19 459.492 1558.19 460.148C1558.19 460.804 1557.87 461.132 1557.23 461.132ZM1559.97 461.132C1559.33 461.132 1559.01 460.804 1559.01 460.148C1559.01 459.492 1559.33 459.164 1559.97 459.164C1560.61 459.164 1560.93 459.492 1560.93 460.148C1560.93 460.804 1560.61 461.132 1559.97 461.132ZM1562.53 473.012H1563.37V474.5H1562.34C1560.9 474.5 1559.82 474.012 1559.1 473.036C1558.35 474.012 1557.26 474.5 1555.84 474.5H1554.81V473.012H1555.65C1557.41 473.012 1558.29 472.1 1558.29 470.276V465.068L1559.89 464.228V470.276C1559.89 472.1 1560.77 473.012 1562.53 473.012ZM1562.89 474.5V473.012H1563.56C1565.39 473.012 1566.3 472.068 1566.3 470.18V459.86L1567.91 459.02V470.204C1567.91 471.564 1567.51 472.636 1566.71 473.42C1565.96 474.14 1564.96 474.5 1563.73 474.5H1562.89ZM1572.23 474.5V459.86L1573.84 459.02V474.5H1572.23Z" fill="black"/>
</g>
<defs>
<filter id="filter0_f" x="255.397" y="1350.22" width="1783.08" height="106.73" filterUnits="userSpaceOnUse" color-interpolation-filters="sRGB">
<feFlood flood-opacity="0" result="BackgroundImageFix"/>
<feBlend mode="normal" in="SourceGraphic" in2="BackgroundImageFix" result="shape"/>
<feGaussianBlur stdDeviation="22" result="effect1_foregroundBlur"/>
</filter>
<linearGradient id="paint0_linear" x1="202" y1="1353.02" x2="2090" y2="1353.02" gradientUnits="userSpaceOnUse">
<stop stop-color="#0D1012"/>
<stop offset="0.0295345" stop-color="#CAD4DB"/>
<stop offset="0.0625" stop-color="#242729"/>
<stop offset="0.133609" stop-color="#A3ACB1"/>
<stop offset="0.865967" stop-color="#A3ACB1"/>
<stop offset="0.941937" stop-color="#242729"/>
<stop offset="0.971275" stop-color="#CAD4DB"/>
<stop offset="0.996436" stop-color="#0D1012"/>
</linearGradient>
<linearGradient id="paint1_linear" x1="1146" y1="1369.87" x2="1146" y2="1392.35" gradientUnits="userSpaceOnUse">
<stop stop-color="#7A7F83"/>
<stop offset="1" stop-color="#0B0B0E"/>
</linearGradient>
<linearGradient id="paint2_linear" x1="1021.44" y1="1352.08" x2="1278.05" y2="1352.08" gradientUnits="userSpaceOnUse">
<stop stop-color="#3C3C3C"/>
<stop offset="0.317518" stop-color="#3C3C3C" stop-opacity="0"/>
<stop offset="0.660584" stop-color="#3C3C3C" stop-opacity="0"/>
<stop offset="1" stop-color="#444444"/>
</linearGradient>
<linearGradient id="paint3_linear" x1="1106.64" y1="510.266" x2="1025" y2="1237.53" gradientUnits="userSpaceOnUse">
<stop stop-color="#FFDE72"/>
<stop offset="0.786458" stop-color="#FFCB21"/>
<stop offset="1" stop-color="#FFDE72"/>
</linearGradient>
<linearGradient id="paint4_linear" x1="1315" y1="864" x2="1315" y2="934" gradientUnits="userSpaceOnUse">
<stop stop-color="#5AA1BE"/>
<stop offset="1" stop-color="#5691AB"/>
</linearGradient>
<clipPath id="clip0">
<rect width="1442" height="899" fill="white" transform="translate(425 364)"/>
</clipPath>
</defs>
</svg>
